<svg width="15" height="16" viewBox="0 0 15 16" fill="none" xmlns="http://www.w3.org/2000/svg">
<g id="address-book">
<g id="Group 12">
<path id="Vector" d="M14.5 4.06421V11.5642C14.5 11.8957 14.3683 12.2137 14.1339 12.4481C13.8995 12.6825 13.5815 12.8142 13.25 12.8142H7C6.66848 12.8142 6.35054 12.6825 6.11612 12.4481C5.8817 12.2137 5.75 11.8957 5.75 11.5642V4.06421C5.75 3.73269 5.8817 3.41475 6.11612 3.18033C6.35054 2.9459 6.66848 2.81421 7 2.81421H13.25C13.5815 2.81421 13.8995 2.9459 14.1339 3.18033C14.3683 3.41475 14.5 3.73269 14.5 4.06421Z" stroke="#E2F3FD" stroke-linecap="round" stroke-linejoin="round"/>
<path id="Vector_2" d="M8.25 10.3142H12" stroke="#E2F3FD" stroke-linecap="round" stroke-linejoin="round"/>
<path id="Vector_3" d="M8.875 7.18921C8.875 7.52073 9.0067 7.83867 9.24112 8.07309C9.47554 8.30751 9.79348 8.43921 10.125 8.43921C10.4565 8.43921 10.7745 8.30751 11.0089 8.07309C11.2433 7.83867 11.375 7.52073 11.375 7.18921C11.375 6.85769 11.2433 6.53975 11.0089 6.30533C10.7745 6.07091 10.4565 5.93921 10.125 5.93921C9.79348 5.93921 9.47554 6.07091 9.24112 6.30533C9.0067 6.53975 8.875 6.85769 8.875 7.18921Z" stroke="#E2F3FD" stroke-linecap="round" stroke-linejoin="round"/>
<path id="Vector_4" d="M4.5 5.31421H6.375" stroke="#E2F3FD" stroke-linecap="round" stroke-linejoin="round"/>
<path id="Vector_5" d="M4.5 7.81421H6.375" stroke="#E2F3FD" stroke-linecap="round" stroke-linejoin="round"/>
<path id="Vector_6" d="M4.5 10.3142H6.375" stroke="#E2F3FD" stroke-linecap="round" stroke-linejoin="round"/>
</g>
</g>
</svg>
