<svg width="156" height="61" viewBox="0 0 156 61" fill="none" xmlns="http://www.w3.org/2000/svg">
<g id="Frame" clip-path="url(#clip0_1061_392)">
<g id="Group">
<g id="Group_2">
<g id="Group_3">
<path id="Vector" d="M113.486 49.2067H121.229V50.4556H118.023V60.3973H116.692V50.4556H113.486V49.2067Z" fill="#04C1C1"/>
</g>
<g id="Group_4">
<path id="Vector_2" d="M122.166 52.454H125.027V53.5031H125.224C125.421 53.0535 125.717 52.7537 126.063 52.5539C126.408 52.354 126.852 52.2541 127.345 52.2541C128.134 52.2541 128.775 52.5039 129.268 53.0535C129.762 53.553 130.008 54.3524 130.058 55.3515L128.775 55.5514C128.775 54.802 128.578 54.3024 128.233 53.9527C127.887 53.603 127.444 53.4531 126.95 53.4531C126.605 53.4531 126.358 53.5031 126.112 53.653C125.865 53.8028 125.668 53.9527 125.52 54.2025C125.372 54.4023 125.224 54.7021 125.175 55.0018C125.125 55.3016 125.076 55.6013 125.076 55.951V59.2982H127.049V60.4473H122.018V59.2982H123.794V53.653H122.166V52.454Z" fill="#04C1C1"/>
</g>
<g id="Group_5">
<path id="Vector_3" d="M137.012 59.0485H136.814C136.568 59.598 136.223 59.9977 135.779 60.2475C135.335 60.4973 134.842 60.6471 134.348 60.6471C133.855 60.6471 133.362 60.5472 132.918 60.3973C132.474 60.1975 132.08 59.9477 131.734 59.598C131.389 59.2483 131.143 58.8486 130.945 58.349C130.748 57.8495 130.649 57.25 130.649 56.6005V56.3507C130.649 55.7012 130.748 55.1017 130.945 54.6022C131.143 54.1026 131.389 53.653 131.734 53.3532C132.08 53.0035 132.474 52.7537 132.918 52.5539C133.362 52.354 133.806 52.3041 134.299 52.3041C134.842 52.3041 135.335 52.404 135.779 52.6538C136.223 52.9036 136.568 53.2533 136.814 53.7529H137.012V52.5039H138.245V58.7987C138.245 59.0984 138.393 59.2982 138.689 59.2982H139.083V60.4473H138.245C137.899 60.4473 137.604 60.3474 137.357 60.0976C137.11 59.8478 137.012 59.548 137.012 59.1983V59.0485ZM134.496 59.4481C134.842 59.4481 135.187 59.3982 135.532 59.2483C135.828 59.0984 136.124 58.8986 136.321 58.6488C136.519 58.399 136.716 58.0992 136.864 57.7495C137.012 57.3998 137.061 57.0002 137.061 56.5505V56.3507C137.061 55.9011 137.012 55.5514 136.864 55.1517C136.716 54.802 136.568 54.5022 136.321 54.2525C136.075 54.0027 135.828 53.8028 135.532 53.653C135.236 53.5031 134.891 53.4531 134.546 53.4531C134.2 53.4531 133.855 53.5031 133.559 53.653C133.263 53.8028 132.967 54.0027 132.77 54.2525C132.524 54.5022 132.376 54.802 132.228 55.1517C132.08 55.5014 132.03 55.9011 132.03 56.3507V56.6005C132.03 57.4997 132.277 58.1992 132.721 58.6988C133.165 59.1983 133.757 59.4481 134.496 59.4481Z" fill="#04C1C1"/>
</g>
<g id="Group_6">
<path id="Vector_4" d="M146.136 59.1983H145.939C145.791 59.4481 145.643 59.648 145.446 59.8478C145.248 60.0476 145.051 60.1975 144.804 60.2974C144.558 60.3973 144.36 60.4973 144.065 60.5472C143.818 60.5972 143.571 60.6471 143.325 60.6471C142.782 60.6471 142.289 60.5472 141.845 60.3973C141.401 60.1975 141.007 59.9477 140.661 59.598C140.316 59.2483 140.07 58.8486 139.872 58.349C139.675 57.8495 139.576 57.25 139.576 56.6005V56.3507C139.576 55.7013 139.675 55.1517 139.872 54.6521C140.07 54.1525 140.316 53.7029 140.661 53.3532C141.007 53.0035 141.401 52.7537 141.845 52.5539C142.289 52.354 142.782 52.3041 143.275 52.3041C143.818 52.3041 144.311 52.404 144.804 52.6538C145.248 52.9036 145.643 53.2533 145.889 53.7529H146.087V49.2566H147.32V60.4473H146.087V59.1983H146.136ZM143.473 59.4481C143.818 59.4481 144.163 59.3982 144.508 59.2483C144.804 59.0984 145.1 58.8986 145.347 58.6488C145.593 58.399 145.791 58.0993 145.889 57.7495C146.037 57.3998 146.087 57.0002 146.087 56.5505V56.3507C146.087 55.9011 146.037 55.5514 145.889 55.1517C145.741 54.802 145.544 54.5023 145.347 54.2525C145.15 54.0027 144.854 53.8028 144.508 53.653C144.163 53.5031 143.867 53.4531 143.473 53.4531C143.127 53.4531 142.782 53.5031 142.437 53.653C142.092 53.8028 141.845 54.0027 141.599 54.2525C141.352 54.5023 141.155 54.802 141.056 55.1517C140.908 55.5014 140.859 55.9011 140.859 56.3008V56.5505C140.859 57.0002 140.908 57.3998 141.056 57.7495C141.204 58.0993 141.352 58.399 141.599 58.6488C141.845 58.8986 142.092 59.0984 142.437 59.2483C142.782 59.3482 143.127 59.4481 143.473 59.4481Z" fill="#04C1C1"/>
</g>
<g id="Group_7">
<path id="Vector_5" d="M149.687 56.8003C149.736 57.5997 149.983 58.1992 150.427 58.6988C150.871 59.1983 151.512 59.3982 152.301 59.3982C152.646 59.3982 152.991 59.3482 153.287 59.2483C153.583 59.1484 153.781 59.0485 153.978 58.8986C154.175 58.7487 154.323 58.5988 154.471 58.399C154.57 58.1992 154.668 57.9993 154.767 57.7495L155.951 58.0493C155.753 58.7987 155.309 59.3982 154.718 59.8478C154.126 60.2974 153.337 60.5472 152.301 60.5472C151.758 60.5472 151.216 60.4473 150.772 60.2475C150.328 60.0476 149.884 59.7479 149.588 59.3982C149.243 59.0485 148.997 58.5988 148.799 58.0993C148.602 57.5997 148.503 57.0501 148.503 56.4506V56.051C148.503 55.5014 148.602 55.0018 148.799 54.5023C148.997 54.0027 149.243 53.603 149.588 53.2533C149.934 52.9036 150.328 52.6538 150.821 52.454C151.265 52.2541 151.808 52.1542 152.35 52.1542C152.991 52.1542 153.534 52.2541 154.027 52.5039C154.471 52.7537 154.866 53.0535 155.162 53.4032C155.457 53.7529 155.704 54.1525 155.803 54.5522C155.951 54.9519 156 55.3515 156 55.7013V56.7004H149.687V56.8003ZM152.301 53.4032C151.956 53.4032 151.61 53.4531 151.315 53.553C151.019 53.653 150.772 53.8028 150.525 54.0027C150.279 54.2025 150.131 54.4523 149.983 54.7021C149.835 54.9519 149.736 55.2516 149.687 55.6013H154.718C154.718 55.2516 154.619 54.9519 154.471 54.6521C154.323 54.3524 154.126 54.1525 153.929 53.9527C153.682 53.7529 153.435 53.603 153.139 53.5031C152.893 53.4531 152.597 53.4032 152.301 53.4032Z" fill="#04C1C1"/>
</g>
</g>
<g id="Group_8">
<g id="Group_9">
<path id="Vector_6" d="M0 0.597168H2.41669C2.41669 14.3357 2.41669 28.1242 2.41669 41.8628C1.57825 42.0626 0.789124 42.3624 0 42.6621C0 28.6738 0 14.6355 0 0.597168Z" fill="white"/>
</g>
<g id="Group_10">
<path id="Vector_7" d="M3.84692 0.597168H5.07993C5.07993 14.2858 5.07993 27.9744 5.07993 41.7129C4.68537 41.7129 4.29081 41.7129 3.89624 41.7129C3.84692 27.9744 3.84692 14.2858 3.84692 0.597168Z" fill="white"/>
</g>
<g id="Group_11">
<path id="Vector_8" d="M7.4967 0.597168H8.92699C8.92699 14.3357 8.92699 28.1242 8.92699 41.8628C8.43379 41.8628 7.94059 41.8628 7.4967 41.8628C7.4967 28.1242 7.4967 14.3357 7.4967 0.597168Z" fill="white"/>
</g>
<g id="Group_12">
<path id="Vector_9" d="M14.007 0.597168H16.4237C16.4237 14.3357 16.4237 28.1242 16.4237 41.8628C15.6345 41.8628 14.7961 41.8628 14.007 41.8628C14.007 28.1242 14.007 14.3357 14.007 0.597168Z" fill="white"/>
</g>
<g id="Group_13">
<path id="Vector_10" d="M17.6566 0.597168H21.5036C21.5036 15.3848 21.5036 30.1226 21.5036 44.9102C20.9611 44.9102 20.3692 44.9602 19.8267 45.0102C19.8267 43.961 19.8267 42.9119 19.8267 41.8628C19.0869 41.8628 18.3964 41.8628 17.6566 41.8628C17.6566 28.1242 17.6566 14.3357 17.6566 0.597168Z" fill="white"/>
</g>
<g id="Group_14">
<path id="Vector_11" d="M22.7367 0.597168H24.167C24.167 15.4348 24.167 30.2724 24.167 45.1101C23.6738 45.0601 23.1806 45.0102 22.7367 45.0102C22.7367 30.1725 22.7367 15.3848 22.7367 0.597168Z" fill="white"/>
</g>
<g id="Group_15">
<path id="Vector_12" d="M27.8167 0.597168H30.4799C30.4799 15.3848 30.4799 30.1725 30.4799 45.0102C29.5922 45.0601 28.7044 45.0601 27.8167 45.0601C27.8167 30.2724 27.8167 15.4348 27.8167 0.597168Z" fill="white"/>
</g>
<g id="Group_16">
<path id="Vector_13" d="M31.6636 0.597168H32.8966C32.8966 14.3357 32.8966 28.1242 32.8966 41.8628C32.502 41.8628 32.1075 41.8628 31.6636 41.8628C31.6636 28.1242 31.6636 14.3357 31.6636 0.597168Z" fill="white"/>
</g>
<g id="Group_17">
<path id="Vector_14" d="M36.7437 0.597168H37.9767C37.9767 14.3357 37.9767 28.1242 37.9767 41.8628C37.5821 41.8628 37.1875 41.8628 36.7437 41.8628C36.7437 28.1242 36.7437 14.3357 36.7437 0.597168Z" fill="white"/>
</g>
<g id="Group_18">
<path id="Vector_15" d="M41.8236 0.597168H44.2403C44.2403 14.3357 44.2403 28.1242 44.2403 41.8628C43.4512 41.8628 42.6127 41.8628 41.8236 41.8628C41.8236 28.1242 41.8236 14.3357 41.8236 0.597168Z" fill="white"/>
</g>
<g id="Group_19">
<path id="Vector_16" d="M45.7198 0.597168H48.1365C48.1365 15.4348 48.1365 30.2724 48.1365 45.1101C47.3474 45.1101 46.5583 45.1101 45.7692 45.1101C45.7692 43.7612 45.7692 42.3624 45.7198 41.0135C45.7198 27.5247 45.7198 14.0859 45.7198 0.597168Z" fill="white"/>
</g>
<g id="Group_20">
<path id="Vector_17" d="M50.7999 0.597168H53.2166C53.2166 14.4856 53.2166 28.3241 53.2166 42.2125C52.3782 42.5122 51.5397 42.9119 50.7999 43.4115C50.7999 29.1234 50.7999 14.8353 50.7999 0.597168Z" fill="white"/>
</g>
<g id="Group_21">
<path id="Vector_18" d="M55.8799 0.597168H58.2966C58.2966 14.3357 58.2966 28.0243 58.2966 41.7629C57.5074 41.7129 56.669 41.6629 55.8799 41.7129C55.8799 27.9744 55.8799 14.2858 55.8799 0.597168Z" fill="white"/>
</g>
<g id="Group_22">
<path id="Vector_19" d="M59.4802 0.597168H63.3272C63.3272 14.3357 63.3272 28.1242 63.3272 41.8628C62.0449 41.8628 60.7626 41.8628 59.4802 41.8628C59.4802 28.1242 59.4802 14.3357 59.4802 0.597168Z" fill="white"/>
</g>
<g id="Group_23">
<path id="Vector_20" d="M67.2235 0.597168H68.4565C68.4565 14.3357 68.4565 28.1242 68.4565 41.8628C68.062 41.8628 67.6674 41.8628 67.2235 41.8628C67.2235 28.1242 67.2235 14.3357 67.2235 0.597168Z" fill="white"/>
</g>
<g id="Group_24">
<path id="Vector_21" d="M69.6403 0.597168H71.0706C71.0706 14.3357 71.0706 28.1242 71.0706 41.8628C70.5773 41.8628 70.0841 41.8628 69.6403 41.8628C69.6403 28.1242 69.6403 14.3357 69.6403 0.597168Z" fill="white"/>
</g>
<g id="Group_25">
<path id="Vector_22" d="M73.5365 0.597168H74.7695C74.7695 14.3357 74.7695 28.1242 74.7695 41.8628C74.3749 41.8628 73.9804 41.8628 73.5365 41.8628C73.5365 28.1242 73.5365 14.3357 73.5365 0.597168Z" fill="white"/>
</g>
<g id="Group_26">
<path id="Vector_23" d="M77.3835 0.597168H82.4635C82.4635 14.3357 82.4635 28.1242 82.4635 41.8628C80.7866 41.8628 79.0604 41.8628 77.3835 41.8628C77.3835 28.1242 77.3835 14.3357 77.3835 0.597168Z" fill="white"/>
</g>
<g id="Group_27">
<path id="Vector_24" d="M83.6965 0.597168H84.9295C84.9295 14.3357 84.9295 28.1242 84.9295 41.8628C84.535 41.8628 84.1404 41.8628 83.6965 41.8628C83.6965 28.1242 83.6965 14.3357 83.6965 0.597168Z" fill="white"/>
</g>
<g id="Group_28">
<path id="Vector_25" d="M87.5435 0.597168H88.7765C88.7765 15.4348 88.7765 30.2724 88.7765 45.1101C88.3819 45.1101 87.9873 45.1101 87.5928 45.1101C87.5435 30.2724 87.5435 15.4348 87.5435 0.597168Z" fill="white"/>
</g>
<g id="Group_29">
<path id="Vector_26" d="M89.9602 0.597168H92.6235C92.6235 14.3357 92.6235 28.1242 92.6235 41.8628C91.7851 41.8628 90.7986 41.8628 89.9602 41.8628C89.9602 41.7129 89.9602 41.7129 89.9602 40.0143C89.9602 26.8753 89.9602 13.7362 89.9602 0.597168Z" fill="white"/>
</g>
<g id="Group_30">
<path id="Vector_27" d="M97.7035 0.597168H98.9365C98.9365 14.3357 98.9365 28.1242 98.9365 41.8628C98.5419 41.8628 98.1474 41.8628 97.7035 41.8628C97.7035 28.1242 97.7035 14.3357 97.7035 0.597168Z" fill="white"/>
</g>
<g id="Group_31">
<path id="Vector_28" d="M103.967 0.597168H105.2C105.2 14.3357 105.2 28.1242 105.2 41.8628C104.806 41.8628 104.411 41.8628 103.967 41.8628C103.967 28.1242 103.967 14.3357 103.967 0.597168Z" fill="white"/>
</g>
<g id="Group_32">
<path id="Vector_29" d="M107.863 0.597168H110.28C110.28 14.3357 110.28 28.1242 110.28 41.8628C109.491 41.8628 108.653 41.8628 107.863 41.8628C107.863 28.1242 107.863 14.3357 107.863 0.597168Z" fill="white"/>
</g>
<g id="Group_33">
<path id="Vector_30" d="M111.464 0.597168H112.894C112.894 14.3357 112.894 28.1242 112.894 41.8628C112.401 41.8628 111.908 41.8628 111.464 41.8628C111.464 28.1242 111.464 14.3357 111.464 0.597168Z" fill="white"/>
</g>
<g id="Group_34">
<path id="Vector_31" d="M114.127 0.597168H116.544C116.544 14.3357 116.544 28.1242 116.544 41.8628C115.755 41.8628 114.916 41.8628 114.127 41.8628C114.127 28.1242 114.127 14.3357 114.127 0.597168Z" fill="white"/>
</g>
<g id="Group_35">
<path id="Vector_32" d="M119.207 0.597168H120.44C120.44 14.3357 120.44 28.1242 120.44 41.8628C120.045 41.8628 119.651 41.8628 119.207 41.8628C119.207 28.1242 119.207 14.3357 119.207 0.597168Z" fill="white"/>
</g>
<g id="Group_36">
<path id="Vector_33" d="M125.52 0.597168H126.753C126.753 14.3357 126.753 28.1242 126.753 41.8628C126.358 41.8628 125.964 41.8628 125.52 41.8628C125.52 28.1242 125.52 14.3357 125.52 0.597168Z" fill="white"/>
</g>
<g id="Group_37">
<path id="Vector_34" d="M129.367 0.597168H130.6C130.6 15.4348 130.6 30.2225 130.6 45.0601C130.206 45.0601 129.811 45.1101 129.416 45.1101C129.367 30.2724 129.367 15.4348 129.367 0.597168Z" fill="white"/>
</g>
<g id="Group_38">
<path id="Vector_35" d="M133.017 0.597168H135.68C135.68 15.3848 135.68 30.2225 135.68 45.0102C134.792 44.9102 133.904 44.9102 133.017 44.9102C133.017 30.1725 133.017 15.3848 133.017 0.597168Z" fill="white"/>
</g>
<g id="Group_39">
<path id="Vector_36" d="M139.527 0.597168H141.944C141.944 14.3357 141.944 28.1242 141.944 41.8628C141.155 41.8628 140.316 41.8628 139.527 41.8628C139.527 28.1242 139.527 14.3357 139.527 0.597168Z" fill="white"/>
</g>
<g id="Group_40">
<path id="Vector_37" d="M145.84 0.597168H149.687C149.687 14.3357 149.687 28.1242 149.687 41.8628C148.405 41.8628 147.122 41.8628 145.84 41.8628C145.84 28.1242 145.84 14.3357 145.84 0.597168Z" fill="white"/>
</g>
<g id="Group_41">
<path id="Vector_38" d="M150.92 0.597168H152.153C152.153 14.3357 152.153 28.1242 152.153 41.8628C151.758 41.8628 151.364 41.8628 150.92 41.8628C150.92 28.1242 150.92 14.3357 150.92 0.597168Z" fill="white"/>
</g>
<g id="Group_42">
<path id="Vector_39" d="M153.337 0.597168H156C156 15.6346 156 30.6721 156 45.7096C155.162 45.3599 154.274 45.1101 153.386 44.9602C153.386 43.6113 153.386 42.3124 153.337 40.9635C153.337 27.5247 153.337 14.0859 153.337 0.597168Z" fill="white"/>
</g>
</g>
<g id="Group_43">
<g id="Group_44">
<g id="Group_45">
<g id="Group_46">
<path id="Vector_40" d="M6.70756 52.404C6.70756 52.0543 6.65824 51.7046 6.51028 51.4548C6.36232 51.155 6.16504 50.9552 5.91844 50.7554C5.67183 50.5555 5.37591 50.4556 5.07999 50.3557C4.78407 50.2558 4.43883 50.2058 4.09359 50.2058C3.79766 50.2058 3.50174 50.2558 3.20582 50.3058C2.9099 50.4057 2.6633 50.5056 2.46602 50.6555C2.26874 50.8053 2.07146 51.0052 1.97281 51.205C1.82485 51.4048 1.77553 51.6546 1.77553 51.9544V52.0543C1.77553 52.354 1.82485 52.6038 1.97281 52.8536C2.12078 53.0535 2.26874 53.2533 2.51534 53.4032C2.76194 53.553 3.05786 53.7029 3.45242 53.8028C3.79766 53.9028 4.24155 54.0027 4.73475 54.0526C5.86912 54.2525 6.75688 54.6022 7.2994 55.1018C7.84193 55.6013 8.13785 56.3008 8.13785 57.15V57.3499C8.13785 57.8495 8.03921 58.2491 7.89125 58.6488C7.74329 59.0485 7.49668 59.3982 7.15144 59.6979C6.8062 59.9977 6.41164 60.1975 5.96776 60.3474C5.47455 60.4973 4.93203 60.5972 4.34019 60.5972C3.6497 60.5972 3.00854 60.4973 2.46602 60.2974C1.92349 60.0976 1.47961 59.7978 1.08505 59.4481C0.739808 59.0984 0.443886 58.6488 0.246605 58.1492C0.0493241 57.6496 -0.0493164 57.1001 -0.0493164 56.5505V56.051H1.28233V56.4506C1.28233 57.4498 1.52893 58.1492 2.07145 58.6488C2.61398 59.1484 3.35378 59.3982 4.29087 59.3982C5.12931 59.3982 5.72115 59.1983 6.16504 58.8486C6.5596 58.4989 6.8062 57.9993 6.8062 57.3998V57.2999C6.8062 56.7004 6.60892 56.2508 6.16504 55.951C5.72115 55.6513 5.03067 55.4015 4.09359 55.3016C3.55106 55.2516 3.05786 55.1018 2.56466 54.9519C2.12078 54.802 1.72621 54.6022 1.43029 54.3524C1.13437 54.1026 0.887769 53.8028 0.690488 53.4531C0.542527 53.0535 0.493207 52.6038 0.493207 52.1542V51.9544C0.493207 51.5048 0.591847 51.1051 0.739808 50.7554C0.937089 50.4057 1.18369 50.056 1.47961 49.8062C1.82485 49.5564 2.1701 49.3565 2.61398 49.2067C3.05786 49.0568 3.55106 49.0068 4.09359 49.0068C4.73475 49.0068 5.27727 49.1068 5.77047 49.2566C6.26368 49.4565 6.65824 49.6563 7.00348 50.006C7.34872 50.3058 7.59532 50.6555 7.79261 51.0551C7.98989 51.4548 8.03921 51.9044 8.03921 52.354V53.0035H6.70756V52.404Z" fill="white"/>
</g>
<g id="Group_47">
<path id="Vector_41" d="M9.12427 52.454H11.5903V49.2067H12.8233V52.454H15.8318V53.603H12.8233V58.7487C12.8233 59.0485 12.9712 59.2483 13.2672 59.2483H15.4866V60.3973H12.8233C12.478 60.3973 12.1821 60.2974 11.9355 60.0476C11.6889 59.7978 11.5903 59.4981 11.5903 59.1484V53.603H9.12427V52.454Z" fill="white"/>
</g>
<g id="Group_48">
<path id="Vector_42" d="M23.7723 59.0485H23.5751C23.3285 59.598 22.9832 59.9977 22.5393 60.2475C22.0955 60.4973 21.6023 60.6471 21.1091 60.6471C20.6159 60.6471 20.1227 60.5472 19.6788 60.3973C19.2349 60.1975 18.8403 59.9477 18.4951 59.598C18.1498 59.2483 17.9032 58.8486 17.706 58.349C17.5087 57.8495 17.41 57.25 17.41 56.6005V56.3507C17.41 55.7012 17.5087 55.1017 17.706 54.6022C17.9032 54.1026 18.1498 53.653 18.4951 53.3532C18.8403 53.0035 19.2349 52.7537 19.6788 52.5539C20.1227 52.354 20.5665 52.3041 21.0597 52.3041C21.6023 52.3041 22.0955 52.404 22.5393 52.6538C22.9832 52.9036 23.3285 53.2533 23.5751 53.7529H23.7723V52.5039H25.0054V58.7987C25.0054 59.0984 25.1533 59.2982 25.4492 59.2982H25.8438V60.4473H25.0054C24.6601 60.4473 24.3642 60.3474 24.1176 60.0976C23.871 59.8478 23.7723 59.548 23.7723 59.1983V59.0485ZM21.257 59.4481C21.6023 59.4481 21.9475 59.3982 22.2927 59.2483C22.5887 59.0984 22.8846 58.8986 23.0819 58.6488C23.2791 58.399 23.4764 58.0992 23.6244 57.7495C23.7723 57.3998 23.8217 57.0002 23.8217 56.5505V56.3507C23.8217 55.9011 23.7723 55.5514 23.6244 55.1517C23.4764 54.802 23.3285 54.5022 23.0819 54.2525C22.8353 54.0027 22.5887 53.8028 22.2927 53.653C21.9968 53.5031 21.6516 53.4531 21.3063 53.4531C20.9611 53.4531 20.6159 53.5031 20.3199 53.653C20.024 53.8028 19.7281 54.0027 19.5308 54.2525C19.2842 54.5022 19.1362 54.802 18.9883 55.1517C18.8403 55.5014 18.791 55.9011 18.791 56.3507V56.6005C18.791 57.4997 19.0376 58.1992 19.4815 58.6988C19.876 59.1983 20.5172 59.4481 21.257 59.4481Z" fill="white"/>
</g>
<g id="Group_49">
<path id="Vector_43" d="M26.337 52.454H29.1976V53.5031H29.3949C29.5922 53.0535 29.8881 52.7537 30.2333 52.5539C30.5786 52.354 31.0225 52.2541 31.5157 52.2541C32.3048 52.2541 32.946 52.5039 33.4392 53.0535C33.9324 53.553 34.179 54.3524 34.2283 55.3515L32.946 55.5514C32.946 54.802 32.7487 54.3024 32.4034 53.9527C32.0582 53.603 31.6143 53.4531 31.1211 53.4531C30.7759 53.4531 30.5293 53.5031 30.2827 53.653C30.0361 53.8028 29.8388 53.9527 29.6908 54.2025C29.5429 54.4023 29.3949 54.7021 29.3456 55.0018C29.2963 55.3016 29.2469 55.6013 29.2469 55.951V59.2982H31.2198V60.4473H26.1891V59.2982H27.9646V53.653H26.337V52.454Z" fill="white"/>
</g>
<g id="Group_50">
<path id="Vector_44" d="M35.264 52.454H37.7301V49.2067H38.9631V52.454H41.9716V53.603H38.9631V58.7487C38.9631 59.0485 39.111 59.2483 39.4069 59.2483H41.6264V60.3973H38.9631C38.6178 60.3973 38.3219 60.2974 38.0753 60.0476C37.8287 59.7978 37.7301 59.4981 37.7301 59.1484V53.603H35.264V52.454Z" fill="white"/>
</g>
</g>
</g>
<g id="Group_51">
<path id="Vector_45" d="M46.9035 57.6996C47.6662 57.6996 48.2845 57.0733 48.2845 56.3008C48.2845 55.5282 47.6662 54.9019 46.9035 54.9019C46.1409 54.9019 45.5226 55.5282 45.5226 56.3008C45.5226 57.0733 46.1409 57.6996 46.9035 57.6996Z" fill="white"/>
</g>
</g>
<g id="Group_52">
<g id="Group_53">
<g id="Group_54">
<g id="Group_55">
<path id="Vector_46" d="M55.3374 55.0018H60.2694V60.3973H59.0364V59.0485H58.8391C58.6418 59.4981 58.3459 59.8978 57.902 60.1975C57.4582 60.4973 56.9156 60.6471 56.3238 60.6471C55.1401 60.6471 54.203 60.2475 53.5125 59.4981C52.822 58.6988 52.4768 57.5997 52.4768 56.1009V53.603C52.4768 52.1542 52.822 51.0052 53.5125 50.2058C54.203 49.4065 55.1401 49.0068 56.3731 49.0068C57.0143 49.0068 57.5568 49.1068 58.05 49.3066C58.5432 49.5064 58.9378 49.8062 59.283 50.1559C59.6282 50.5056 59.8748 50.9552 60.0228 51.4548C60.1708 51.9544 60.2694 52.5039 60.2694 53.0535V53.2533H58.9378V53.0535C58.9378 52.7038 58.8884 52.354 58.7898 52.0043C58.6912 51.6546 58.5432 51.3549 58.3459 51.1051C58.1486 50.8553 57.902 50.6555 57.5568 50.5056C57.2116 50.3557 56.8663 50.2558 56.3731 50.2558C55.5347 50.2558 54.8935 50.5555 54.4496 51.205C54.0057 51.8545 53.8085 52.6538 53.8085 53.7029V56.001C53.8085 57.1001 54.0057 57.9494 54.4496 58.5489C54.8935 59.1484 55.5347 59.4481 56.4224 59.4481C57.2116 59.4481 57.8527 59.1983 58.2966 58.6988C58.7405 58.1992 58.9871 57.4498 58.9871 56.5505V56.3507H55.3867V55.0018H55.3374Z" fill="white"/>
</g>
<g id="Group_56">
<path id="Vector_47" d="M61.6504 59.2483H64.511V50.3557H61.749V49.2067H65.744V59.2483H68.6046V60.3973H61.6997V59.2483H61.6504Z" fill="white"/>
</g>
<g id="Group_57">
<path id="Vector_48" d="M77.7288 56.5006C77.7288 57.15 77.6301 57.7495 77.3835 58.2491C77.1862 58.7487 76.8903 59.1983 76.5451 59.548C76.1998 59.8977 75.7559 60.1475 75.3121 60.3474C74.8189 60.5472 74.3257 60.5972 73.8325 60.5972C73.2899 60.5972 72.7967 60.4972 72.3528 60.3474C71.8596 60.1475 71.4651 59.8977 71.1198 59.548C70.7746 59.1983 70.4787 58.7987 70.2814 58.2491C70.0841 57.7495 69.9362 57.15 69.9362 56.5006V56.3007C69.9362 55.6513 70.0348 55.0518 70.2814 54.5522C70.4787 54.0526 70.7746 53.603 71.1692 53.2533C71.5144 52.9036 71.9583 52.6538 72.4022 52.454C72.8954 52.2541 73.3886 52.2042 73.8818 52.2042C74.375 52.2042 74.8682 52.3041 75.3614 52.454C75.8546 52.6538 76.2492 52.9036 76.5944 53.2533C76.9396 53.603 77.2356 54.0526 77.4822 54.5522C77.6794 55.0518 77.8274 55.6513 77.8274 56.3007V56.5006H77.7288ZM73.8325 59.4481C74.227 59.4481 74.5723 59.3982 74.8682 59.2483C75.2134 59.0984 75.46 58.8986 75.7066 58.6488C75.9532 58.399 76.1505 58.0992 76.2985 57.7495C76.4464 57.3998 76.4958 57.0002 76.4958 56.5505V56.3507C76.4958 55.9011 76.4464 55.5514 76.2985 55.1517C76.1505 54.802 75.9532 54.5022 75.7066 54.2525C75.46 54.0027 75.1641 53.8028 74.8682 53.653C74.5229 53.5031 74.1777 53.4531 73.8325 53.4531C73.4872 53.4531 73.0927 53.5031 72.7967 53.653C72.4515 53.8028 72.2049 54.0027 71.9583 54.2525C71.7117 54.5022 71.5144 54.802 71.3664 55.1517C71.2185 55.5014 71.1692 55.9011 71.1692 56.3507V56.5505C71.1692 57.0002 71.2185 57.3998 71.3664 57.7495C71.5144 58.0992 71.7117 58.399 71.9583 58.6488C72.2049 58.8986 72.5008 59.0984 72.7967 59.2483C73.0927 59.3982 73.4379 59.4481 73.8325 59.4481Z" fill="white"/>
</g>
<g id="Group_58">
<path id="Vector_49" d="M79.9975 60.3973H78.7645V49.2067H79.9975V53.7029H80.1948C80.4907 53.2033 80.836 52.8536 81.3292 52.6038C81.8224 52.354 82.3156 52.2042 82.9074 52.2042C83.4006 52.2042 83.8445 52.3041 84.2884 52.454C84.7323 52.6538 85.0775 52.9036 85.4228 53.2533C85.768 53.603 86.0146 54.0027 86.2119 54.5023C86.4092 55.0018 86.5078 55.5514 86.5078 56.2008V56.5006C86.5078 57.15 86.4092 57.7495 86.2119 58.2491C86.0146 58.7487 85.768 59.1484 85.4228 59.4981C85.0775 59.8478 84.683 60.0976 84.2391 60.2974C83.7952 60.4973 83.3513 60.5472 82.8581 60.5472C82.6115 60.5472 82.3649 60.4973 82.069 60.4473C81.8224 60.3973 81.5758 60.2974 81.3292 60.1975C81.0826 60.0976 80.8853 59.9477 80.688 59.7479C80.4907 59.548 80.3428 59.3482 80.1948 59.0984H79.9975V60.3973ZM82.6608 59.4481C83.0554 59.4481 83.4006 59.3982 83.6966 59.2483C83.9925 59.0984 84.2884 58.9485 84.535 58.6988C84.7816 58.449 84.9789 58.1492 85.0775 57.7995C85.2255 57.4498 85.2748 57.0501 85.2748 56.6005V56.3008C85.2748 55.8511 85.2255 55.5014 85.0775 55.1517C84.9296 54.802 84.7816 54.5023 84.535 54.2525C84.2884 54.0027 84.0418 53.8028 83.6966 53.653C83.3513 53.5031 83.0554 53.4531 82.6608 53.4531C82.3156 53.4531 81.9703 53.5031 81.6251 53.653C81.3292 53.8028 81.0333 54.0027 80.7867 54.2525C80.5401 54.5023 80.3428 54.802 80.2441 55.1517C80.0962 55.5014 80.0469 55.9011 80.0469 56.3507V56.5505C80.0469 57.0002 80.0962 57.3998 80.2441 57.7495C80.3921 58.0993 80.5894 58.399 80.7867 58.6488C81.0333 58.8986 81.2799 59.0984 81.6251 59.2483C81.921 59.3482 82.2663 59.4481 82.6608 59.4481Z" fill="white"/>
</g>
<g id="Group_59">
<path id="Vector_50" d="M93.4619 59.0485H93.2646C93.018 59.598 92.6728 59.9977 92.2289 60.2475C91.785 60.4973 91.2918 60.6471 90.7986 60.6471C90.3054 60.6471 89.8122 60.5472 89.3683 60.3973C88.9245 60.1975 88.5299 59.9477 88.1847 59.598C87.8394 59.2483 87.5928 58.8486 87.3955 58.349C87.1982 57.8495 87.0996 57.25 87.0996 56.6005V56.3507C87.0996 55.7012 87.1982 55.1017 87.3955 54.6022C87.5928 54.1026 87.8394 53.653 88.1847 53.3532C88.5299 53.0035 88.9245 52.7537 89.3683 52.5539C89.8122 52.354 90.2561 52.3041 90.7493 52.3041C91.2918 52.3041 91.785 52.404 92.2289 52.6538C92.6728 52.9036 93.018 53.2533 93.2646 53.7529H93.4619V52.5039H94.6949V58.7987C94.6949 59.0984 94.8429 59.2982 95.1388 59.2982H95.5334V60.4473H94.6949C94.3497 60.4473 94.0538 60.3474 93.8072 60.0976C93.5606 59.8478 93.4619 59.548 93.4619 59.1983V59.0485ZM90.9466 59.4481C91.2918 59.4481 91.6371 59.3982 91.9823 59.2483C92.2782 59.0984 92.5742 58.8986 92.7714 58.6488C92.9687 58.399 93.166 58.0992 93.314 57.7495C93.4619 57.3998 93.5112 57.0002 93.5112 56.5505V56.3507C93.5112 55.9011 93.4619 55.5514 93.314 55.1517C93.166 54.802 93.018 54.5022 92.7714 54.2525C92.5248 54.0027 92.2782 53.8028 91.9823 53.653C91.6864 53.5031 91.3411 53.4531 90.9959 53.4531C90.6507 53.4531 90.3054 53.5031 90.0095 53.653C89.7136 53.8028 89.4177 54.0027 89.2204 54.2525C88.9738 54.5022 88.8258 54.802 88.6779 55.1517C88.5299 55.5014 88.4806 55.9011 88.4806 56.3507V56.6005C88.4806 57.4997 88.7272 58.1992 89.1711 58.6988C89.5656 59.1983 90.2068 59.4481 90.9466 59.4481Z" fill="white"/>
</g>
<g id="Group_60">
<path id="Vector_51" d="M96.5198 59.2483H99.3804V50.3557H96.6184V49.2067H100.613V59.2483H103.474V60.3973H96.5691V59.2483H96.5198Z" fill="white"/>
</g>
</g>
</g>
<g id="Group_61">
<path id="Vector_52" d="M108.209 57.6996C108.971 57.6996 109.59 57.0733 109.59 56.3008C109.59 55.5282 108.971 54.9019 108.209 54.9019C107.446 54.9019 106.828 55.5282 106.828 56.3008C106.828 57.0733 107.446 57.6996 108.209 57.6996Z" fill="white"/>
</g>
</g>
</g>
</g>
<defs>
<clipPath id="clip0_1061_392">
<rect width="156" height="60" fill="white" transform="translate(0 0.597168)"/>
</clipPath>
</defs>
</svg>
