<svg width="51" height="51" viewBox="0 0 51 51" fill="none" xmlns="http://www.w3.org/2000/svg">
<g id="Frame 25">
<g id="Group 11">
<path id="Vector" d="M25.5 25.0286C32.3925 25.0286 38 19.421 38 12.5286C38 5.63609 32.3925 0.0285645 25.5 0.0285645C18.6075 0.0285645 13 5.63609 13 12.5286C13 19.421 18.6075 25.0286 25.5 25.0286ZM19.6667 21.6428V17.5204C19.6667 16.847 19.9282 16.2171 20.4051 15.7454C20.8728 15.283 21.4892 15.0289 22.1444 15.0289H22.1667L23.5968 15.0416L23.025 17.3265C22.9915 17.4589 22.9915 17.5981 23.025 17.7305L24.4194 23.3072C22.6809 23.1342 21.0667 22.5419 19.6668 21.6427L19.6667 21.6428ZM25.5 8.67704C26.5498 9.54349 27.865 10.0286 29.2165 10.0286C29.3407 10.0286 29.4616 10.0118 29.5848 10.0036C29.2076 11.9151 27.5208 13.3619 25.4999 13.3619C23.4791 13.3619 21.7923 11.9152 21.4151 10.0036C22.8507 10.0877 24.3555 9.62194 25.4999 8.67697L25.5 8.67704ZM21.4241 8.33776C21.8207 6.45118 23.4967 5.02861 25.5 5.02861C27.5033 5.02861 29.1793 6.45128 29.5759 8.33776C29.4569 8.34854 29.3382 8.36194 29.2165 8.36194C28.0532 8.36194 26.9234 7.85376 26.1157 6.96756C25.7998 6.62083 25.199 6.62083 24.8832 6.96756C24.0766 7.85372 22.9476 8.36194 21.7835 8.36194C21.6618 8.36194 21.5431 8.34854 21.4241 8.33776ZM25.5 20.7597L24.6923 17.529L25.3099 15.0565L25.6897 15.0599L26.3077 17.529L25.5 20.7597ZM31.3333 21.6432C29.9334 22.5424 28.3192 23.135 26.5808 23.3073L27.9751 17.7306C28.0086 17.5982 28.0086 17.4591 27.9751 17.3266L27.4119 15.0751L28.8126 15.0877C30.2527 15.0944 31.2891 16.3303 31.3327 18.071V21.6432L31.3333 21.6432ZM25.5 1.69559C31.4732 1.69559 36.3333 6.55569 36.3333 12.5289C36.3333 15.5914 35.0498 18.3556 33 20.3281V18.049C32.9382 15.6183 31.471 13.805 29.4375 13.4865C30.5993 12.42 31.3333 10.8939 31.3333 9.19559C31.3333 5.97912 28.7158 3.36226 25.5 3.36226C22.2842 3.36226 19.6667 5.97912 19.6667 9.19559C19.6667 10.8648 20.375 12.3682 21.5026 13.4322C20.6584 13.5721 19.8568 13.9422 19.231 14.5612C18.4367 15.3488 17.9999 16.3998 17.9999 17.5206V20.3283C15.9501 18.3558 14.6666 15.5917 14.6666 12.5291C14.6666 6.5555 19.5267 1.69578 25.4999 1.69578L25.5 1.69559Z" fill="white"/>
<path id="Vector_2" d="M28 33.362C28.4609 33.362 28.8333 32.9885 28.8333 32.5286V27.5286C28.8333 27.0688 28.4609 26.6953 28 26.6953H23C22.539 26.6953 22.1666 27.0688 22.1666 27.5286V32.5286C22.1666 32.9885 22.539 33.362 23 33.362H28ZM23.8333 28.362H27.1666V31.6953H23.8333V28.362Z" fill="white"/>
<path id="Vector_3" d="M40.5 22.5285H45.5C45.9609 22.5285 46.3333 22.155 46.3333 21.6951V16.6951C46.3333 16.2353 45.9609 15.8618 45.5 15.8618H40.5C40.039 15.8618 39.6666 16.2353 39.6666 16.6951V21.6951C39.6666 22.155 40.039 22.5285 40.5 22.5285ZM41.3333 17.5285H44.6666V20.8618H41.3333V17.5285Z" fill="white"/>
<path id="Vector_4" d="M5.49996 22.5285H10.5C10.9609 22.5285 11.3333 22.155 11.3333 21.6951V16.6951C11.3333 16.2353 10.9609 15.8618 10.5 15.8618H5.49996C5.03903 15.8618 4.66663 16.2353 4.66663 16.6951V21.6951C4.66663 22.155 5.03903 22.5285 5.49996 22.5285ZM6.33329 17.5285H9.66663V20.8618H6.33329V17.5285Z" fill="white"/>
<path id="Vector_5" d="M8 49.1953C12.1358 49.1953 15.5 45.8304 15.5 41.6953C15.5 37.5603 12.1358 34.1953 8 34.1953C3.86419 34.1953 0.5 37.5603 0.5 41.6953C0.5 45.8304 3.86419 49.1953 8 49.1953ZM10.5 46.958C9.74069 47.3196 8.89505 47.5287 8 47.5287C7.10495 47.5287 6.25933 47.3196 5.5 46.958V45.0286C5.5 44.5696 5.87351 44.1953 6.33333 44.1953H9.66667C10.1265 44.1953 10.5 44.5696 10.5 45.0286V46.958ZM6.33333 40.862C6.33333 39.9427 7.08073 39.1953 8 39.1953C8.91927 39.1953 9.66667 39.9427 9.66667 40.862C9.66667 41.7812 8.91927 42.5286 8 42.5286C7.08073 42.5286 6.33333 41.7812 6.33333 40.862ZM8 35.862C11.2158 35.862 13.8333 38.4788 13.8333 41.6953C13.8333 43.2802 13.1957 44.7176 12.1667 45.7693V45.0286C12.1667 44.0294 11.5733 43.1719 10.7243 42.7719C11.1049 42.2303 11.3333 41.5737 11.3333 40.862C11.3333 39.0238 9.83814 37.5286 7.99995 37.5286C6.16176 37.5286 4.66662 39.0238 4.66662 40.862C4.66662 41.5736 4.89504 42.2295 5.27562 42.7719C4.42666 43.1719 3.83324 44.0294 3.83324 45.0286V45.7693C2.80419 44.7176 2.16657 43.2801 2.16657 41.6953C2.16657 38.4788 4.78409 35.862 7.9999 35.862H8Z" fill="white"/>
<path id="Vector_6" d="M18 42.5286C18 46.6636 21.3642 50.0286 25.5 50.0286C29.6358 50.0286 33 46.6636 33 42.5286C33 38.3935 29.6358 35.0286 25.5 35.0286C21.3642 35.0286 18 38.3935 18 42.5286ZM28 47.7912C27.2407 48.1528 26.395 48.3619 25.5 48.3619C24.605 48.3619 23.7593 48.1528 23 47.7912V45.8619C23 45.4028 23.3735 45.0286 23.8333 45.0286H27.1667C27.6265 45.0286 28 45.4028 28 45.8619V47.7912ZM23.8333 41.6952C23.8333 40.776 24.5807 40.0286 25.5 40.0286C26.4193 40.0286 27.1667 40.776 27.1667 41.6952C27.1667 42.6145 26.4193 43.3619 25.5 43.3619C24.5807 43.3619 23.8333 42.6145 23.8333 41.6952ZM25.5 36.6952C28.7158 36.6952 31.3333 39.3121 31.3333 42.5286C31.3333 44.1134 30.6957 45.5509 29.6667 46.6026V45.8619C29.6667 44.8626 29.0733 44.0051 28.2243 43.6052C28.6049 43.0635 28.8333 42.4069 28.8333 41.6952C28.8333 39.857 27.3381 38.3619 25.5 38.3619C23.6618 38.3619 22.1666 39.857 22.1666 41.6952C22.1666 42.4069 22.395 43.0627 22.7756 43.6052C21.9267 44.0051 21.3332 44.8626 21.3332 45.8619V46.6026C20.3042 45.5501 19.6666 44.1126 19.6666 42.5286C19.6666 39.3121 22.2841 36.6952 25.4999 36.6952H25.5Z" fill="white"/>
<path id="Vector_7" d="M35.5 41.6953C35.5 45.8304 38.8642 49.1953 43 49.1953C47.1358 49.1953 50.5 45.8304 50.5 41.6953C50.5 37.5603 47.1358 34.1953 43 34.1953C38.8642 34.1953 35.5 37.5603 35.5 41.6953ZM45.5 46.958C44.7407 47.3196 43.895 47.5287 43 47.5287C42.105 47.5287 41.2593 47.3196 40.5 46.958V45.0286C40.5 44.5696 40.8735 44.1953 41.3333 44.1953H44.6667C45.1265 44.1953 45.5 44.5696 45.5 45.0286V46.958ZM41.3333 40.862C41.3333 39.9427 42.0807 39.1953 43 39.1953C43.9193 39.1953 44.6667 39.9427 44.6667 40.862C44.6667 41.7812 43.9193 42.5286 43 42.5286C42.0807 42.5286 41.3333 41.7812 41.3333 40.862ZM48.8333 41.6953C48.8333 43.2802 48.1957 44.7176 47.1667 45.7693V45.0286C47.1667 44.0294 46.5733 43.1719 45.7243 42.7719C46.1049 42.2303 46.3333 41.5737 46.3333 40.862C46.3333 39.0238 44.8381 37.5286 43 37.5286C41.1618 37.5286 39.6666 39.0238 39.6666 40.862C39.6666 41.5736 39.895 42.2295 40.2756 42.7719C39.4267 43.1719 38.8332 44.0294 38.8332 45.0286V45.7693C37.8042 44.7168 37.1666 43.2793 37.1666 41.6953C37.1666 38.4788 39.7841 35.862 42.9999 35.862C46.2157 35.862 48.8333 38.4788 48.8333 41.6953Z" fill="white"/>
<path id="Vector_8" d="M7.16671 24.1953V29.1953L6.16671 27.862L4.83337 28.862L7.33337 32.1953C7.48999 32.4051 7.73739 32.5286 8.00004 32.5286C8.26269 32.5286 8.50935 32.4051 8.66671 32.1953L11.1667 28.862L9.83337 27.862L8.83337 29.1953V24.1953H7.16671Z" fill="white"/>
<path id="Vector_9" d="M42.1667 24.1953V29.1953L41.1667 27.862L39.8334 28.862L42.3334 32.1953C42.49 32.4051 42.7374 32.5286 43 32.5286C43.2627 32.5286 43.5093 32.4051 43.6667 32.1953L46.1667 28.862L44.8334 27.862L43.8334 29.1953V24.1953H42.1667Z" fill="white"/>
</g>
</g>
</svg>
