<svg width="51" height="51" viewBox="0 0 51 51" fill="none" xmlns="http://www.w3.org/2000/svg">
<g id="Frame 27">
<g id="Group 9">
<path id="Vector" d="M21.7566 38.5042L15.3924 46.9622L15.337 42.0936C15.3336 41.8701 15.2281 41.6604 15.051 41.5244C14.8712 41.3866 14.6401 41.3352 14.4189 41.3839L8.89378 42.6013L14.2583 36.566C14.045 36.0159 13.8827 35.4474 13.7741 34.8674L6.99822 42.4904C6.70118 42.8402 6.65447 43.3385 6.88128 43.7374C7.10843 44.1362 7.55333 44.3587 8.0086 44.3009C8.03313 44.2982 8.05732 44.2942 8.08118 44.2888L13.8416 43.0193L13.9001 48.1026V48.1023C13.9196 48.5697 14.2311 48.9743 14.6783 49.112C15.1353 49.2602 15.636 49.1066 15.9313 48.7279L22.8278 39.5632H22.8281C22.434 39.2494 22.0748 38.8942 21.7566 38.5038L21.7566 38.5042Z" fill="white"/>
<path id="Vector_2" d="M40.0388 39.6017L38.8089 39.6H38.0434L40.7111 42.601L35.1856 41.3836C34.9645 41.3346 34.733 41.386 34.5536 41.5241C34.3762 41.6602 34.271 41.8698 34.2676 42.0933L34.2125 46.9609L28.0038 38.7109C27.6816 39.0964 27.3106 39.4378 26.8997 39.7268L33.6923 48.7513C33.9074 49.0151 34.23 49.1683 34.5704 49.168C34.691 49.168 34.8106 49.1488 34.9255 49.1118C35.3792 48.97 35.6927 48.555 35.7048 48.0796L35.7626 43.0191L41.523 44.2883C41.5472 44.2936 41.5714 44.2977 41.5959 44.3004C42.0512 44.3592 42.4972 44.1364 42.7232 43.7365C42.9521 43.3306 42.8993 42.8243 42.5922 42.4737L40.0388 39.6017Z" fill="white"/>
<path id="Vector_3" d="M24.8018 8.89941C21.907 8.89908 19.1311 10.0489 17.0844 12.0956C15.0376 14.1423 13.8875 16.9182 13.8875 19.8127C13.8875 22.7072 15.0373 25.4834 17.0837 27.5301C19.1304 29.5768 21.9062 30.7267 24.8011 30.727C27.6955 30.727 30.4715 29.5772 32.5182 27.5305C34.5652 25.4841 35.7151 22.7079 35.7151 19.8134C35.712 16.9199 34.5612 14.1457 32.5152 12.0997C30.4691 10.0537 27.6953 8.90277 24.8018 8.89941ZM24.8018 29.222C22.3065 29.222 19.9133 28.2308 18.1485 26.4663C16.3841 24.7018 15.3928 22.3087 15.3928 19.8134C15.3928 17.3181 16.3841 14.925 18.1485 13.1605C19.913 11.396 22.3061 10.4048 24.8014 10.4051C27.2967 10.4051 29.6899 11.3964 31.4543 13.1608C33.2188 14.9253 34.21 17.3184 34.2097 19.8137C34.207 22.308 33.2148 24.6995 31.451 26.4633C29.6872 28.2271 27.2961 29.219 24.8018 29.222Z" fill="white"/>
<path id="Vector_4" d="M29.7996 18.0018L26.8074 17.5797L25.4733 14.9561C25.3446 14.7037 25.0856 14.5444 24.8023 14.5444C24.5187 14.5444 24.2596 14.7037 24.1309 14.9561L22.7969 17.5801L19.8047 18.0021V18.0018C19.5184 18.0421 19.2808 18.243 19.1928 18.5186C19.1051 18.7941 19.1827 19.0952 19.3927 19.2941L21.5443 21.3297L21.0375 24.1987C20.9878 24.4796 21.1017 24.7646 21.3312 24.9343C21.5607 25.1043 21.8665 25.1295 22.1209 24.9998L24.8023 23.6315L27.4835 24.9998C27.7378 25.1295 28.0436 25.1043 28.2731 24.9346C28.5026 24.7646 28.6165 24.4796 28.5668 24.1987L28.0601 21.3297L30.2117 19.2941C30.4217 19.0952 30.4993 18.7941 30.4116 18.5186C30.3235 18.243 30.0859 18.0421 29.7996 18.0018ZM26.7314 20.5145H26.7311C26.5473 20.6883 26.4629 20.943 26.5069 21.1923L26.8215 22.9722L25.144 22.1163L25.1444 22.116C24.9293 22.0064 24.675 22.0064 24.4599 22.116L22.7825 22.9718L23.097 21.192L23.0973 21.1923C23.1413 20.943 23.057 20.6883 22.8732 20.5145L21.5624 19.2743L23.3954 19.0159C23.6387 18.9816 23.8501 18.8307 23.9613 18.6116L24.802 16.9577L25.6431 18.6116C25.7543 18.8307 25.9657 18.9816 26.2089 19.0159L28.042 19.2743L26.7314 20.5145Z" fill="white"/>
<path id="Vector_5" d="M28.628 35.5132C28.9113 35.4466 29.5413 35.738 30.0706 35.9991V34.3401C29.5215 34.0572 28.8972 33.9544 28.2863 34.0468C27.4285 34.247 26.8139 35.07 26.2192 35.866C25.8458 36.3656 25.2813 37.1214 24.9806 37.1247H24.9793C24.6816 37.1247 24.0817 36.3562 23.7235 35.8969C23.111 35.112 22.4773 34.3002 21.6123 34.1167H21.612C21.4866 34.0905 21.3586 34.0774 21.2306 34.0777C20.4957 34.0777 19.7262 34.4803 18.9789 34.8714C18.4127 35.1685 17.5551 35.616 17.2715 35.4847C17.0242 35.3711 16.8293 34.4413 16.7131 33.8855C16.5074 32.904 16.2944 31.8885 15.579 31.3419C14.8686 30.7992 13.8178 30.8422 12.7991 30.8839C12.253 30.9071 11.2352 30.948 11.0598 30.7384C10.8733 30.5142 11.1173 29.569 11.2631 29.0038C11.5087 28.0523 11.7621 27.068 11.3723 26.2918C10.9771 25.5096 10.0195 25.1043 9.09309 24.7129C8.58603 24.4985 7.64216 24.0997 7.57627 23.8305C7.51108 23.5627 8.16867 22.7912 8.52182 22.3769C9.16866 21.6175 9.83735 20.8326 9.82857 19.9572C9.81849 19.0876 9.13536 18.3194 8.47442 17.5765C8.11051 17.1679 7.43339 16.4064 7.4936 16.1329C7.55207 15.8698 8.48147 15.4555 8.98083 15.2334C9.90289 14.8225 10.8565 14.3977 11.2389 13.6027C11.6129 12.8265 11.3407 11.8514 11.0776 10.9085C10.9197 10.3433 10.6552 9.39678 10.8424 9.1622C11.0379 8.91757 12.0531 8.93907 12.6596 8.95353C13.6512 8.97604 14.673 8.99754 15.3417 8.46394C16.0383 7.9085 16.2295 6.89603 16.415 5.91693C16.5216 5.35476 16.6996 4.41293 16.952 4.2913C17.2269 4.15823 18.1221 4.60447 18.6569 4.87161C19.548 5.31684 20.4678 5.77655 21.3192 5.5786C22.1764 5.37867 22.7906 4.55606 23.3855 3.76036C23.7578 3.26103 24.3227 2.50497 24.624 2.50195H24.6257C24.9234 2.50195 25.5229 3.2701 25.8811 3.72974C26.4933 4.51435 27.1267 5.32621 27.9916 5.50996C28.8431 5.69074 29.7477 5.21459 30.6257 4.75424C31.1919 4.45753 32.0457 4.01163 32.3317 4.13999C32.5796 4.25424 32.7745 5.18498 32.8915 5.74077C33.0971 6.72193 33.3098 7.73707 34.0256 8.28442C34.7356 8.82609 35.786 8.7814 36.8038 8.74108C37.3505 8.71756 38.3677 8.67656 38.5438 8.88691C38.7309 9.1107 38.4866 10.0566 38.3411 10.6214C38.0955 11.573 37.8421 12.5573 38.2323 13.3325C38.6271 14.1151 39.5851 14.5204 40.5118 14.9121C41.0186 15.1265 41.9624 15.5254 42.028 15.7938C42.0932 16.0613 41.4356 16.8331 41.0824 17.2474C40.4356 18.0068 39.7669 18.7918 39.7759 19.6661C39.7853 20.5367 40.4695 21.3056 41.1304 22.0488C41.494 22.4574 42.1708 23.2182 42.1103 23.4916C42.0522 23.7554 41.1221 24.1701 40.6224 24.3925C40.5061 24.4443 40.3892 24.4964 40.2729 24.5495C40.3734 24.5847 40.4739 24.6214 40.5716 24.6651L40.572 24.6657C41.0283 24.8663 41.4406 25.1557 41.7847 25.5165C42.6318 25.1157 43.3976 24.6449 43.5808 23.8173C43.8076 22.7931 43.0186 21.9063 42.2555 21.0487C41.8459 20.5884 41.2851 19.9577 41.2817 19.6502C41.2784 19.3394 41.8274 18.6949 42.2287 18.2241C42.9706 17.3535 43.7377 16.453 43.4911 15.4378C43.2465 14.4338 42.1544 13.9721 41.0987 13.5256C40.518 13.2799 39.7227 12.9439 39.5769 12.6553C39.4411 12.3855 39.6481 11.5834 39.7993 10.9974C40.0725 9.9389 40.3813 8.73933 39.7005 7.92247C39.0497 7.1419 37.8766 7.19028 36.7425 7.23665C36.098 7.26319 35.2174 7.29915 34.9401 7.08779C34.6689 6.88046 34.4932 6.04306 34.3648 5.43153C34.135 4.33673 33.8978 3.204 32.9613 2.77261C32.004 2.33376 30.9488 2.88584 29.928 3.42045C29.3763 3.70943 28.6209 4.10526 28.3051 4.03739C27.9764 3.9675 27.4516 3.29478 27.0685 2.80315C26.3712 1.90965 25.6522 0.991625 24.6088 0.996356C23.5624 1.00745 22.8591 1.94896 22.1783 2.85993C21.807 3.3569 21.2986 4.03739 20.9767 4.11257C20.6561 4.18549 19.8887 3.80377 19.3285 3.52454C18.301 3.01144 17.2381 2.48084 16.297 2.93549C15.3611 3.3871 15.1447 4.53093 14.9358 5.63708C14.8205 6.24595 14.6626 7.07966 14.4025 7.28697C14.1599 7.48052 13.3117 7.46204 12.6925 7.44826C11.5298 7.42306 10.3252 7.39618 9.6653 8.22346C8.99796 9.05982 9.3323 10.2574 9.62733 11.3135C9.77988 11.8592 10.0104 12.6845 9.88203 12.9499C9.73921 13.2473 8.94689 13.6004 8.36788 13.8582C7.32487 14.3233 6.24624 14.8034 6.02345 15.8075C5.79663 16.8323 6.58595 17.7197 7.34938 18.5776C7.75866 19.0376 8.31945 19.668 8.3228 19.9737C8.32616 20.2852 7.77676 20.93 7.37519 21.4008C6.63325 22.2715 5.86611 23.172 6.11274 24.1872C6.35804 25.1919 7.45011 25.6536 8.5062 26.1001C9.08651 26.3454 9.88151 26.6814 10.0271 26.9697C10.1628 27.2395 9.95582 28.0426 9.80462 28.6283C9.53143 29.6864 9.22196 30.886 9.90307 31.7032C10.5546 32.4831 11.7273 32.4344 12.8604 32.3887C13.5039 32.3621 14.3859 32.3255 14.6642 32.5386C14.9354 32.7455 15.1108 33.5829 15.2391 34.1945C15.469 35.2895 15.7059 36.422 16.642 36.8524C17.5994 37.2946 18.6551 36.7401 19.677 36.2052C20.2274 35.9165 20.9824 35.5207 21.2996 35.5889C21.6279 35.6588 22.1531 36.3315 22.5365 36.8232C23.2297 37.7119 23.9468 38.6303 24.9787 38.6303H24.9962C26.0419 38.6189 26.7449 37.6774 27.4249 36.7671C27.7969 36.2694 28.306 35.588 28.6282 35.5131L28.628 35.5132Z" fill="white"/>
<path id="Vector_6" d="M44.831 32.8276C45.0894 32.3894 45.1808 31.8723 45.0881 31.3719C44.9957 30.8716 44.7252 30.4217 44.3273 30.1049C43.9291 29.788 43.4298 29.6257 42.9214 29.6479L41.5941 29.6469V29.6465C41.6321 29.4365 41.6458 29.2228 41.6357 29.0094C41.5648 28.3653 41.3773 26.668 39.9627 26.0427L39.963 26.0424C39.6637 25.9066 39.3387 25.8357 39.0101 25.8347C38.9738 25.8347 38.9379 25.8357 38.9019 25.8374C38.4281 25.8643 37.9749 26.04 37.6065 26.3391C36.9771 26.8818 36.6647 27.7057 36.7762 28.5293C36.7789 28.584 36.7823 28.6385 36.7823 28.6919V28.8777C36.5857 29.2773 36.0181 30.1654 35.8182 30.4785L35.8081 30.4943C35.6922 30.5289 35.5601 30.5676 35.4244 30.6069V30.6065C35.1767 30.4395 34.8847 30.3505 34.586 30.3508H33.0806C32.6818 30.3512 32.2991 30.5098 32.0168 30.792C31.7346 31.0743 31.576 31.457 31.5756 31.8562V36.372C31.576 36.7712 31.7346 37.1539 32.0168 37.4361C32.2991 37.7184 32.6818 37.877 33.0806 37.8773H34.586C34.9351 37.876 35.2725 37.752 35.5397 37.5272C35.5672 37.5275 35.5931 37.5289 35.6213 37.5289C35.7537 37.5289 35.911 37.5242 36.0686 37.5191C36.1452 37.5168 36.2218 37.5141 36.2944 37.5124L36.2947 37.5128C36.5077 37.6499 36.7399 37.7544 36.9839 37.8226C37.1106 37.8568 37.2409 37.874 37.372 37.8743L41.8895 37.8757C42.4685 37.8794 43.0252 37.6536 43.4379 37.2473C43.8505 36.841 44.085 36.288 44.0904 35.709C44.0904 35.6972 44.0904 35.6855 44.0901 35.674C44.3703 35.3031 44.5219 34.8511 44.5215 34.3864C44.5215 34.3256 44.5188 34.2657 44.5138 34.2073C44.7309 33.8659 44.8458 33.4694 44.8458 33.0648C44.8458 32.9855 44.8408 32.9062 44.831 32.8276ZM34.5859 36.3719H33.0805V31.8562H34.5859V36.3719ZM42.9212 32.4109C42.9212 32.4109 43.3402 32.7325 43.3402 33.0645V33.0648C43.3298 33.4398 43.018 33.7359 42.6429 33.7258C42.8466 33.8908 42.98 34.127 43.0159 34.3864C43.0065 34.7611 42.6954 35.0574 42.3207 35.0484C42.4763 35.2352 42.5687 35.4664 42.5848 35.709C42.5804 35.8887 42.5045 36.0598 42.3741 36.1838C42.2434 36.3078 42.069 36.3746 41.8893 36.3703L37.3742 36.3689C37.1316 36.3037 36.9528 36.1112 36.7206 36.0292C36.6242 36.0084 36.5254 36.0006 36.4266 36.0057C36.3258 36.0057 36.2092 36.009 36.0912 36.0127V31.9801C36.3332 31.9183 36.5704 31.8403 36.8019 31.7469C36.8913 31.5578 38.2875 29.513 38.2875 29.1099V28.6919C38.2875 28.2796 38.1746 27.8128 38.5415 27.5184C38.6645 27.4149 38.8167 27.3531 38.977 27.3407C38.9881 27.34 38.9992 27.34 39.0099 27.34C39.1289 27.342 39.2462 27.3689 39.3544 27.4193C39.9461 27.6807 40.0792 28.6263 40.139 29.1693C40.053 29.8461 39.8903 30.5107 39.6538 31.1505L42.9215 31.1532H42.9212C43.0939 31.134 43.267 31.1875 43.3987 31.3004C43.5308 31.4133 43.6101 31.5759 43.6178 31.7496C43.608 32.1246 43.2962 32.4207 42.9212 32.4112L42.9212 32.4109Z" fill="white"/>
</g>
</g>
</svg>
