<svg width="51" height="51" viewBox="0 0 51 51" fill="none" xmlns="http://www.w3.org/2000/svg">
<g id="Frame 26">
<g id="Group 8">
<path id="Vector" d="M18.8331 25.0286C18.8342 24.7835 18.8483 24.5387 18.8748 24.2954L17.2081 24.0952C17.1303 24.715 17.1303 25.3423 17.2081 25.9621L18.8748 25.7619C18.8483 25.5186 18.8342 25.2738 18.8331 25.0286Z" fill="white"/>
<path id="Vector_2" d="M41.8586 12.995C42.0773 12.9942 42.2868 12.9075 42.4419 12.7535L49.4253 5.77006C49.6601 5.53085 49.7285 5.17444 49.5994 4.86527C49.4703 4.55648 49.1686 4.35447 48.8338 4.35335H46.1752V1.6948C46.1741 1.35998 45.9721 1.05825 45.6633 0.929154C45.3542 0.800055 44.9978 0.868512 44.7585 1.10326L37.7751 8.0867C37.6211 8.24184 37.5344 8.45129 37.5336 8.67005V11.8119L34.3085 15.0284C30.7965 11.9331 25.9225 10.8981 21.4558 12.2984C16.9892 13.6988 13.5783 17.3313 12.4622 21.8778C11.3457 26.424 12.6858 31.2229 15.9958 34.5333C19.3062 37.8433 24.1051 39.1834 28.6514 38.067C33.1976 36.9508 36.8302 33.5401 38.2307 29.0734C39.631 24.6064 38.596 19.7324 35.5007 16.2206L38.7341 12.9955L41.8586 12.995ZM39.2 9.01979L44.5085 3.70307V5.18673C44.5085 5.40772 44.5963 5.61941 44.7526 5.77603C44.9092 5.93229 45.1209 6.02009 45.3419 6.02009H46.8252L41.5084 11.3286L39.2004 11.3282L39.2 9.01979ZM37.1668 25.0288C37.1735 28.6074 35.5377 31.9911 32.7288 34.208C29.9199 36.4253 26.2491 37.2312 22.7694 36.3937C19.2898 35.5563 16.3879 33.1686 14.8953 29.9162C13.4031 26.6639 13.4857 22.9063 15.12 19.7226C16.754 16.5387 19.7589 14.2812 23.2717 13.5981C26.7841 12.9147 30.4163 13.8812 33.1243 16.2198L30.766 18.5782C28.6651 16.8672 25.8637 16.2842 23.2546 17.0153C20.6455 17.7459 18.5547 19.6999 17.6489 22.2535L19.2155 22.8034C19.9324 20.7888 21.5723 19.24 23.6245 18.6395C25.677 18.0391 27.8928 18.4595 29.5826 19.7701L27.1659 22.1701C26.2142 21.6087 25.0479 21.5484 24.0438 22.009C23.0393 22.4696 22.3242 23.3926 22.129 24.4804C21.9337 25.5679 22.283 26.6821 23.0643 27.4634C23.8455 28.2446 24.9598 28.594 26.0472 28.3987C27.1351 28.2033 28.058 27.4883 28.5186 26.4838C28.9792 25.4797 28.9189 24.3134 28.3575 23.3617L30.7575 20.9618C31.6682 22.1218 32.1642 23.5538 32.166 25.0285C32.1649 27.1413 31.1627 29.1287 29.4639 30.3854C27.7652 31.6417 25.5714 32.0186 23.5508 31.401C21.5303 30.7838 19.9217 29.2451 19.2155 27.2536L17.6488 27.8034C18.4606 30.1331 20.2627 31.9836 22.5701 32.8564C24.8775 33.7296 27.4531 33.535 29.6035 32.3259C31.7538 31.1168 33.258 29.0167 33.7107 26.5918C34.1635 24.1664 33.5184 21.6652 31.9495 19.7616L34.3079 17.4032C36.1513 19.5156 37.167 22.2248 37.1663 25.0284L37.1668 25.0288ZM27.1665 25.0288C27.1665 25.4708 26.9909 25.8949 26.6784 26.2074C26.3659 26.5199 25.9418 26.6955 25.4998 26.6955C25.0578 26.6955 24.6337 26.5199 24.3212 26.2074C24.0087 25.8949 23.8331 25.4708 23.8331 25.0288C23.8331 24.5868 24.0087 24.1627 24.3212 23.8502C24.6337 23.5377 25.0578 23.3621 25.4998 23.3621C25.6434 23.364 25.7863 23.3837 25.9247 23.4205L24.9079 24.4373L26.0913 25.6208L27.1081 24.604C27.145 24.7424 27.1647 24.8852 27.1665 25.0288Z" fill="white"/>
<path id="Vector_3" d="M4.66608 29.1953C5.62668 29.1957 6.55785 28.8639 7.30196 28.2563C8.04608 27.6488 8.55762 26.8031 8.74953 25.8619H11.3329V24.1952H8.74953C8.53821 23.1598 7.94147 22.2435 7.07986 21.6315C6.2186 21.0195 5.15686 20.7579 4.10949 20.8993C3.06213 21.0407 2.10791 21.5745 1.4398 22.3931C0.771257 23.2112 0.438628 24.2532 0.509345 25.3076C0.580403 26.3619 1.0488 27.3497 1.82043 28.0718C2.5924 28.7935 3.60948 29.195 4.66608 29.1953ZM4.66608 22.5285C5.32904 22.5285 5.96526 22.7919 6.43394 23.2607C6.90262 23.7294 7.1661 24.3656 7.1661 25.0285C7.1661 25.6914 6.90271 26.3277 6.43394 26.7964C5.96518 27.265 5.32896 27.5285 4.66608 27.5285C4.00321 27.5285 3.3669 27.2651 2.89822 26.7964C2.42954 26.3276 2.16606 25.6914 2.16606 25.0285C2.16606 24.3656 2.42946 23.7293 2.89822 23.2607C3.36699 22.792 4.00321 22.5285 4.66608 22.5285Z" fill="white"/>
<path id="Vector_4" d="M46.3339 20.8618C45.3733 20.8615 44.4421 21.1933 43.698 21.8008C42.9539 22.4084 42.4424 23.254 42.2505 24.1953H39.6671V25.862H42.2505C42.4618 26.8974 43.0585 27.8137 43.9201 28.4257C44.7814 29.0377 45.8431 29.2992 46.8905 29.1579C47.9379 29.0165 48.8921 28.4826 49.5602 27.6641C50.2287 26.846 50.5614 25.804 50.4906 24.7495C50.4196 23.6952 49.9512 22.7075 49.1796 21.9854C48.4076 21.2636 47.3905 20.8622 46.3339 20.8618ZM46.3339 27.5287C45.6709 27.5287 45.0347 27.2653 44.566 26.7965C44.0974 26.3278 43.8339 25.6915 43.8339 25.0287C43.8339 24.3658 44.0973 23.7295 44.566 23.2608C45.0348 22.7921 45.671 22.5286 46.3339 22.5286C46.9968 22.5286 47.6331 22.792 48.1018 23.2608C48.5704 23.7296 48.8339 24.3658 48.8339 25.0287C48.8339 25.6915 48.5705 26.3278 48.1018 26.7965C47.633 27.2652 46.9968 27.5287 46.3339 27.5287Z" fill="white"/>
<path id="Vector_5" d="M15.7417 5.26989L14.6665 6.32792C13.7539 5.49829 12.5663 5.0355 11.3331 5.02808C10.0079 5.02919 8.73737 5.55637 7.80059 6.49393C6.86381 7.43146 6.3374 8.70237 6.3374 10.0275C6.33703 11.3531 6.86308 12.624 7.79954 13.5618C8.94357 14.6958 10.5637 15.2092 12.1519 14.9409C13.7402 14.6731 15.1022 13.6563 15.8105 12.2098C16.5189 10.763 16.4869 9.0639 15.725 7.64491L16.9252 6.45326L15.7417 5.26989ZM14.6665 10.0282C14.6672 10.9125 14.3164 11.7607 13.6914 12.3866C13.056 12.993 12.2115 13.3312 11.3331 13.3312C10.4547 13.3312 9.61016 12.993 8.97471 12.3866C8.22842 11.5528 7.95011 10.3999 8.234 9.31763C8.51786 8.23502 9.32631 7.36738 10.3859 7.00727C11.4454 6.64717 12.6151 6.84283 13.4998 7.52813L11.333 9.68666L10.2579 8.6033L9.0744 9.78676L10.7411 11.4535L10.7415 11.4531C10.8977 11.6108 11.1109 11.6998 11.333 11.6998C11.5551 11.6998 11.7683 11.6108 11.9246 11.4531L14.4663 8.91132C14.5965 9.26959 14.6643 9.64722 14.6665 10.0282Z" fill="white"/>
<path id="Vector_6" d="M15.7416 35.2709L14.6665 36.3289C13.7539 35.4993 12.5663 35.0365 11.333 35.0291C9.86271 35.0279 8.4661 35.6742 7.51522 36.7959C6.56429 37.9171 6.15546 39.4005 6.39728 40.851C6.63873 42.3015 7.50665 43.5721 8.77011 44.3247C10.0332 45.0774 11.5637 45.2359 12.9544 44.7578C14.3447 44.2801 15.4549 43.2142 15.9883 41.8444C16.5222 40.4742 16.4258 38.9384 15.7249 37.646L16.9251 36.4543L15.7416 35.2709ZM14.6665 40.0292C14.6672 40.9135 14.3164 41.7617 13.6914 42.3875C13.056 42.994 12.2114 43.3321 11.333 43.3321C10.4546 43.3321 9.61013 42.994 8.97469 42.3875C8.22839 41.5538 7.95009 40.4009 8.23397 39.3186C8.51784 38.236 9.32629 37.3684 10.3858 37.0083C11.4454 36.6481 12.615 36.8438 13.4997 37.5291L11.333 39.6876L10.2578 38.6043L9.07438 39.7877L10.7411 41.4545L10.7415 41.4541C10.8977 41.6118 11.1109 41.7007 11.333 41.7007C11.5551 41.7007 11.7683 41.6118 11.9245 41.4541L14.4663 38.9123C14.5965 39.2706 14.6642 39.6482 14.6665 40.0292Z" fill="white"/>
<path id="Vector_7" d="M44.0757 35.2709L43.0006 36.3289C42.088 35.4993 40.9004 35.0365 39.6671 35.0291C38.1968 35.0279 36.8002 35.6742 35.8493 36.7959C34.8984 37.9171 34.4896 39.4005 34.7314 40.851C34.9728 42.3015 35.8408 43.5721 37.1042 44.3247C38.3673 45.0774 39.8978 45.2359 41.2885 44.7578C42.6789 44.2801 43.789 43.2142 44.3224 41.8444C44.8563 40.4742 44.7599 38.9384 44.059 37.646L45.2592 36.4543L44.0757 35.2709ZM43.0006 40.0292C43.0013 40.9135 42.6505 41.7617 42.0255 42.3875C41.3901 42.994 40.5456 43.3321 39.6671 43.3321C38.7887 43.3321 37.9442 42.994 37.3088 42.3875C36.5625 41.5538 36.2842 40.4009 36.5681 39.3186C36.8519 38.236 37.6604 37.3684 38.7199 37.0083C39.7795 36.6481 40.9491 36.8438 41.8338 37.5291L39.6671 39.6876L38.5919 38.6043L37.4085 39.7877L39.0752 41.4545L39.0756 41.4541C39.2318 41.6118 39.445 41.7007 39.6671 41.7007C39.8892 41.7007 40.1024 41.6118 40.2586 41.4541L42.7587 38.9123C42.903 39.268 42.9849 39.646 43.0006 40.0292Z" fill="white"/>
<path id="Vector_8" d="M26.3334 10.8615V8.27813C27.6946 8.00022 28.8275 7.06229 29.3551 5.7773C29.8822 4.49193 29.7345 3.02874 28.9607 1.87462C28.1869 0.720965 26.8892 0.0285645 25.5 0.0285645C24.1109 0.0285645 22.8132 0.720917 22.0394 1.87462C21.2655 3.02865 21.1178 4.49183 21.645 5.7773C22.1726 7.06229 23.3054 8.00022 24.6667 8.27813V10.8615H26.3334ZM22.9999 4.19468C22.9999 3.53172 23.2633 2.8955 23.7321 2.42682C24.2009 1.95814 24.8371 1.69466 25.4999 1.69466C26.1628 1.69466 26.7991 1.95806 27.2678 2.42682C27.7365 2.89559 28 3.53181 28 4.19468C28 4.85756 27.7366 5.49386 27.2678 5.96254C26.799 6.43122 26.1628 6.6947 25.4999 6.6947C24.8371 6.6947 24.2008 6.43131 23.7321 5.96254C23.2634 5.49378 22.9999 4.85756 22.9999 4.19468Z" fill="white"/>
<path id="Vector_9" d="M24.6667 39.1956V41.779C23.3054 42.0569 22.1725 42.9948 21.6449 44.2798C21.1178 45.5652 21.2655 47.0283 22.0393 48.1825C22.8131 49.3361 24.1108 50.0285 25.5 50.0285C26.8892 50.0285 28.1868 49.3362 28.9606 48.1825C29.7345 47.0284 29.8822 45.5653 29.355 44.2798C28.8274 42.9948 27.6946 42.0569 26.3333 41.779V39.1956H24.6667ZM28.0001 45.8624C28.0001 46.5254 27.7367 47.1616 27.2679 47.6303C26.7992 48.099 26.1629 48.3624 25.5001 48.3624C24.8372 48.3624 24.2009 48.099 23.7322 47.6303C23.2635 47.1615 23 46.5253 23 45.8624C23 45.1995 23.2634 44.5632 23.7322 44.0946C24.201 43.6259 24.8372 43.3624 25.5001 43.3624C26.1629 43.3624 26.7992 43.6258 27.2679 44.0946C27.7366 44.5633 28.0001 45.1995 28.0001 45.8624Z" fill="white"/>
</g>
</g>
</svg>
