<svg width="15" height="16" viewBox="0 0 15 16" fill="none" xmlns="http://www.w3.org/2000/svg">
<g id="Frame 75">
<g id="Group">
<path id="Vector" d="M5.23483 10.5969C5.23483 9.30044 5.76195 8.11799 6.63097 7.26321C6.16085 7.04952 5.66222 6.93555 5.10662 6.93555C3.08364 6.93555 1.44531 8.57387 1.44531 10.5969C1.44531 12.6198 3.08364 14.2439 5.10662 14.2439C5.64798 14.2439 6.16085 14.1157 6.63097 13.9162C5.76195 13.0757 5.23483 11.8933 5.23483 10.5969Z" fill="#E2F3FD"/>
<path id="Vector_2" d="M9.90764 10.4684C8.61123 10.4684 7.42878 9.94129 6.574 9.07227C6.36031 9.54239 6.24634 10.041 6.24634 10.5966C6.24634 12.6054 7.88467 14.2437 9.90764 14.2437C11.9306 14.2437 13.5547 12.6054 13.5547 10.5966C13.5547 10.0553 13.4265 9.54239 13.227 9.07227C12.3865 9.92705 11.2041 10.4684 9.90764 10.4684Z" fill="#E2F3FD"/>
<path id="Vector_3" d="M9.90766 2.13452C9.3663 2.13452 8.85343 2.26274 8.3833 2.46219C9.23808 3.31697 9.77944 4.48517 9.77944 5.79583C9.77944 7.10649 9.25233 8.27469 8.3833 9.12947C8.85343 9.34316 9.35205 9.45713 9.90766 9.45713C11.9164 9.45713 13.5547 7.8188 13.5547 5.79583C13.5547 3.77285 11.9306 2.13452 9.90766 2.13452Z" fill="#E2F3FD"/>
<path id="Vector_4" d="M5.10662 5.92404C6.40303 5.92404 7.58548 6.45116 8.44026 7.32018C8.65395 6.85006 8.76792 6.35143 8.76792 5.79583C8.76792 3.77285 7.1296 2.13452 5.10662 2.13452C3.08364 2.13452 1.44531 3.77285 1.44531 5.79583C1.44531 6.33719 1.57353 6.85006 1.77298 7.32018C2.62776 6.45116 3.8102 5.92404 5.10662 5.92404Z" fill="#E2F3FD"/>
</g>
</g>
</svg>
