<svg width="51" height="51" viewBox="0 0 51 51" fill="none" xmlns="http://www.w3.org/2000/svg">
<g id="Frame 24">
<g id="Group 10">
<path id="Vector" d="M25.5 0.0283203C14.4112 0.0283203 5.50159 8.96111 5.50159 20.0267V21.0017C4.78841 21.2577 4.2211 21.8228 3.97328 22.5397C2.00602 22.6851 0.5 24.3072 0.5 26.2767V32.9468C0.5 34.9423 2.03869 36.5405 3.97328 36.6838C4.31183 37.6633 5.24302 38.3586 6.3316 38.3586H9.66651C11.0371 38.3586 12.1632 37.2585 12.1632 35.8619L12.1636 23.3618C12.1636 22.2531 11.4653 21.3532 10.5032 21.005V20.0269C10.5032 11.7024 17.1986 5.03048 25.4996 5.03048C33.801 5.03048 40.4979 11.7029 40.4979 20.0269V21.0068C39.5172 21.3513 38.8297 22.2851 38.8297 23.3621V35.8622C38.8297 37.2328 39.9346 38.3589 41.3345 38.3589H43.0012V39.6152C43.0012 43.0509 40.2281 45.8653 36.7511 45.8653H28.7288C28.3593 44.4289 27.0427 43.3604 25.4996 43.3604C23.6491 43.3604 22.1662 44.8642 22.1662 46.6953C22.1662 48.5265 23.6521 50.0287 25.4996 50.0287C27.0402 50.0287 28.3452 48.9818 28.7273 47.532H36.7516C41.1229 47.532 44.6684 43.9966 44.6684 39.6152V38.3589C45.7737 38.3589 46.6885 37.6636 47.0267 36.6841C48.9895 36.5397 50.5 34.9173 50.5 32.947V26.277C50.5 24.3066 48.9933 22.6842 47.03 22.54C46.7823 21.8231 46.212 21.2561 45.4984 21.0001V20.0269C45.4984 8.96101 36.5887 0.0285109 25.5 0.0285109L25.5 0.0283203ZM25.5 1.69653C35.6515 1.69653 43.8316 9.8555 43.8316 20.0263V20.8645H42.1649V20.0263C42.1649 10.8074 34.7419 3.36322 25.5 3.36322C16.258 3.36322 8.83687 10.8079 8.83687 20.0263V20.8645L7.16828 20.8649V20.0267C7.16828 9.85511 15.3485 1.69691 25.5 1.69691V1.69653ZM23.2864 19.653C23.1 19.7203 22.8575 19.82 22.6778 19.9037L21.4962 19.0622C21.164 18.8282 20.7116 18.8672 20.4252 19.1552C19.8575 19.7188 19.2711 20.3014 18.7175 20.8658H16.3346C14.964 20.8658 13.8297 21.9919 13.8297 23.3625V34.196C13.8297 35.5896 14.964 36.6927 16.3346 36.6927H21.4717L24.3199 39.5477C24.9624 40.1902 26.039 40.1902 26.6815 39.5477L29.5298 36.6927H34.6668C36.0374 36.6927 37.1635 35.6023 37.1635 34.196V23.3625C37.1635 21.9919 36.0649 20.8658 34.6668 20.8658H32.2955C31.7263 20.301 31.147 19.7244 30.5749 19.1552C30.2885 18.868 29.8372 18.8289 29.5057 19.0622L28.3275 19.9037C28.1463 19.8193 27.9015 19.7173 27.7136 19.65L27.4744 18.2255C27.4071 17.8263 27.0622 17.5331 26.6574 17.5305H24.3445C24.3181 17.5294 24.2913 17.5294 24.2649 17.5305C23.8899 17.5685 23.5867 17.8535 23.5261 18.2255L23.2864 19.653ZM25.0509 19.1972H25.9494L26.1528 20.4342C26.2083 20.7556 26.4464 21.0149 26.7615 21.0983C27.1871 21.2103 27.5978 21.3825 27.9787 21.6027C28.2622 21.7683 28.6168 21.7516 28.8835 21.5603L29.8995 20.8349L30.5327 21.4677L29.8065 22.4833C29.6157 22.7497 29.5982 23.1031 29.7626 23.3866C29.9851 23.7672 30.1533 24.1783 30.2671 24.6042C30.353 24.9197 30.6149 25.1556 30.9379 25.208L32.1685 25.4164V26.3085L30.933 26.5183C30.609 26.5715 30.3467 26.8096 30.2622 27.127C30.1499 27.5529 29.9836 27.9581 29.7626 28.3394C29.5985 28.6229 29.6156 28.9763 29.8065 29.2427L30.5323 30.2583L29.8991 30.8915L28.8768 30.1656C28.6101 29.9752 28.2567 29.9588 27.9736 30.1232C27.593 30.3457 27.1867 30.5187 26.7612 30.6326C26.4453 30.7159 26.2072 30.9763 26.1525 31.2981L25.949 32.5269L25.0509 32.5276L24.8489 31.2989C24.7954 30.9744 24.5565 30.7118 24.2384 30.6281C23.8124 30.5157 23.4021 30.3446 23.0208 30.1236C22.7377 29.9588 22.3842 29.9755 22.1175 30.166L21.1022 30.8919L20.4691 30.2587L21.1949 29.243C21.3854 28.9763 21.4017 28.6229 21.2373 28.3397C21.0148 27.9592 20.8467 27.5462 20.7328 27.1206C20.6465 26.8058 20.3842 26.5704 20.0621 26.5183L18.8318 26.3084V25.4163L20.0687 25.208C20.3902 25.1526 20.6495 24.9145 20.7328 24.5993C20.8451 24.1734 21.0163 23.7615 21.2373 23.3802C21.3991 23.0986 21.3827 22.7485 21.1949 22.4832L20.469 21.468L21.1022 20.8348L22.1227 21.5606C22.3883 21.7489 22.7392 21.7656 23.0212 21.603C23.4017 21.3832 23.8087 21.2165 24.2336 21.1049C24.5535 21.023 24.7946 20.76 24.8489 20.4341L25.0509 19.1972ZM6.3316 22.5325H9.66651C10.1196 22.5325 10.5032 22.8867 10.5032 23.3625V35.8627C10.5032 36.3389 10.12 36.6927 9.66651 36.6927H6.3316C5.87512 36.6927 5.50161 36.3385 5.50161 35.8627L5.50124 23.3625C5.50124 22.906 5.85541 22.5325 6.33123 22.5325H6.3316ZM16.3355 22.5325H19.1857L19.5406 23.0288C19.4547 23.2122 19.3587 23.4585 19.2899 23.649L17.8672 23.8848C17.4617 23.9499 17.1644 24.3 17.1655 24.71V27.0162C17.1648 27.4236 17.4587 27.7722 17.8605 27.8399L19.2846 28.0743C19.3534 28.2633 19.4561 28.5077 19.5417 28.6896L18.7035 29.8648C18.4646 30.1963 18.5015 30.6517 18.7898 30.9408L20.4256 32.5717C20.7139 32.8575 21.1663 32.8939 21.4967 32.6581L22.6719 31.8199C22.8546 31.9054 23.0975 32.0085 23.2873 32.0769L23.5265 33.5011C23.5938 33.901 23.9394 34.1945 24.3453 34.196H26.6582C27.0633 34.1938 27.4078 33.9006 27.4752 33.5011L27.7159 32.0803C27.9064 32.0111 28.1445 31.9065 28.3279 31.8198L29.5061 32.658C29.8361 32.8932 30.2873 32.8567 30.5753 32.5717L32.2126 30.9407C32.5009 30.6517 32.5374 30.1963 32.2989 29.8648L31.4607 28.6896C31.5466 28.5062 31.646 28.2647 31.7144 28.0742L33.1352 27.8399C33.5396 27.7751 33.8369 27.4258 33.8369 27.0162V24.71C33.838 24.2996 33.5404 23.9495 33.1352 23.8848L31.7174 23.6489C31.6482 23.4588 31.5466 23.2166 31.4603 23.0336L31.8167 22.5321H34.6669C35.1431 22.5321 35.5036 22.9138 35.5036 23.3621V34.1956C35.5036 34.6424 35.1431 35.0323 34.6669 35.0323L29.1854 35.0327C28.9644 35.0312 28.7519 35.1171 28.5946 35.2719L25.5004 38.366L22.4063 35.2719C22.2489 35.1171 22.0365 35.0308 21.8155 35.0327H16.3352C15.859 35.0327 15.4985 34.6398 15.4985 34.196L15.4988 23.3625C15.4988 22.8863 15.8593 22.5325 16.3355 22.5325ZM25.5008 22.5325C23.6696 22.5325 22.1674 24.0284 22.1674 25.8596C22.1674 27.6908 23.6696 29.1945 25.5008 29.1945C27.332 29.1945 28.8357 27.6908 28.8357 25.8596C28.8357 24.0284 27.332 22.5325 25.5008 22.5325ZM41.3363 22.5325H44.6696C45.1295 22.5325 45.4996 22.8867 45.4996 23.3625V35.8627C45.4996 36.3225 45.1455 36.6927 44.6696 36.6927H41.3363C40.8601 36.6927 40.4996 36.3191 40.4996 35.8627V23.3625C40.4996 22.9094 40.8601 22.5325 41.3363 22.5325ZM25.5008 24.1929C26.4313 24.1929 27.169 24.9292 27.169 25.8596C27.169 26.79 26.4309 27.5278 25.5008 27.5278C24.5704 27.5278 23.8341 26.7897 23.8341 25.8596C23.8341 24.9292 24.5704 24.1929 25.5008 24.1929ZM3.83481 34.9902C2.89506 34.8053 2.16812 33.9723 2.16812 32.9474V26.2777C2.16812 25.255 2.90064 24.4205 3.83147 24.2349L3.83481 34.9902ZM47.1668 24.2348C48.1002 24.4182 48.8335 25.2527 48.8335 26.2776V32.9477C48.8335 33.9723 48.1051 34.806 47.1668 34.9905V24.2348ZM25.4999 45.0275C26.4072 45.0275 27.1681 45.7656 27.1681 46.6957C27.1681 47.6261 26.4024 48.3624 25.4999 48.3624C24.5969 48.3624 23.8332 47.6261 23.8332 46.6957C23.8332 45.7653 24.5925 45.0275 25.4999 45.0275Z" fill="white"/>
</g>
</g>
</svg>
