<svg width="15" height="16" viewBox="0 0 15 16" fill="none" xmlns="http://www.w3.org/2000/svg">
<g id="layout-grid">
<g id="Group 6">
<path id="Vector" d="M2.5 3.81421C2.5 3.64845 2.56585 3.48948 2.68306 3.37227C2.80027 3.25506 2.95924 3.18921 3.125 3.18921H5.625C5.79076 3.18921 5.94973 3.25506 6.06694 3.37227C6.18415 3.48948 6.25 3.64845 6.25 3.81421V6.31421C6.25 6.47997 6.18415 6.63894 6.06694 6.75615C5.94973 6.87336 5.79076 6.93921 5.625 6.93921H3.125C2.95924 6.93921 2.80027 6.87336 2.68306 6.75615C2.56585 6.63894 2.5 6.47997 2.5 6.31421V3.81421Z" stroke="#E2F3FD" stroke-linecap="round" stroke-linejoin="round"/>
<path id="Vector_2" d="M8.75 3.81421C8.75 3.64845 8.81585 3.48948 8.93306 3.37227C9.05027 3.25506 9.20924 3.18921 9.375 3.18921H11.875C12.0408 3.18921 12.1997 3.25506 12.3169 3.37227C12.4342 3.48948 12.5 3.64845 12.5 3.81421V6.31421C12.5 6.47997 12.4342 6.63894 12.3169 6.75615C12.1997 6.87336 12.0408 6.93921 11.875 6.93921H9.375C9.20924 6.93921 9.05027 6.87336 8.93306 6.75615C8.81585 6.63894 8.75 6.47997 8.75 6.31421V3.81421Z" stroke="#E2F3FD" stroke-linecap="round" stroke-linejoin="round"/>
<path id="Vector_3" d="M2.5 10.0642C2.5 9.89845 2.56585 9.73948 2.68306 9.62227C2.80027 9.50506 2.95924 9.43921 3.125 9.43921H5.625C5.79076 9.43921 5.94973 9.50506 6.06694 9.62227C6.18415 9.73948 6.25 9.89845 6.25 10.0642V12.5642C6.25 12.73 6.18415 12.8889 6.06694 13.0062C5.94973 13.1234 5.79076 13.1892 5.625 13.1892H3.125C2.95924 13.1892 2.80027 13.1234 2.68306 13.0062C2.56585 12.8889 2.5 12.73 2.5 12.5642V10.0642Z" stroke="#E2F3FD" stroke-linecap="round" stroke-linejoin="round"/>
<path id="Vector_4" d="M8.75 10.0642C8.75 9.89845 8.81585 9.73948 8.93306 9.62227C9.05027 9.50506 9.20924 9.43921 9.375 9.43921H11.875C12.0408 9.43921 12.1997 9.50506 12.3169 9.62227C12.4342 9.73948 12.5 9.89845 12.5 10.0642V12.5642C12.5 12.73 12.4342 12.8889 12.3169 13.0062C12.1997 13.1234 12.0408 13.1892 11.875 13.1892H9.375C9.20924 13.1892 9.05027 13.1234 8.93306 13.0062C8.81585 12.8889 8.75 12.73 8.75 12.5642V10.0642Z" stroke="#E2F3FD" stroke-linecap="round" stroke-linejoin="round"/>
</g>
</g>
</svg>
