<svg width="198" height="232" viewBox="0 0 198 232" fill="none" xmlns="http://www.w3.org/2000/svg">
<g id="Mask group">
<mask id="mask0_1121_13412" style="mask-type:alpha" maskUnits="userSpaceOnUse" x="0" y="0" width="198" height="232">
<rect id="Rectangle 9" width="197.004" height="230.955" transform="matrix(1 0 0 -1 0.5 231.051)" fill="#D9D9D9"/>
</mask>
<g mask="url(#mask0_1121_13412)">
<path id="Union" fill-rule="evenodd" clip-rule="evenodd" d="M3.55545 1.41931H0.503601V242.994C1.50012 241.272 2.49665 239.551 3.55545 238.403V1.41931ZM6.91871 1.41931H5.36165C5.36165 80.0314 5.36165 158.644 5.42393 237.543H6.91871V1.41931ZM9.97055 1.41931H11.7767V238.403H9.97055V1.41931ZM21.2437 1.41931H18.1919V238.403H21.2437V1.41931ZM22.8008 1.41931H27.6588V255.904C26.9737 255.904 26.2263 256.191 25.5412 256.478V238.403H22.8008V1.41931ZM31.0221 1.41931H29.2159V256.478C29.7765 256.478 30.3993 256.765 31.0221 257.052V1.41931ZM35.631 1.41931H38.9943V256.478C37.8732 256.765 36.7522 256.765 35.6312 256.765H35.631V1.41931ZM42.0461 1.41931H40.489V238.403H42.0461V1.41931ZM46.9042 1.41931H48.4612V238.403H46.9042V1.41931ZM56.3711 1.41931H53.3193V238.403H56.3711V1.41931ZM58.2396 1.41931H61.2914V257.052H58.3019C58.3019 249.306 58.3019 241.272 58.2396 233.526V1.41931ZM67.7066 1.41931H64.6547V247.297C65.589 244.428 66.6478 242.133 67.7066 240.412V1.41931ZM71.0699 1.41931H74.1217V237.829C73.1252 237.543 72.0664 237.256 71.0699 237.543V1.41931ZM80.4745 1.41931H75.6165V238.403H80.4745V1.41931ZM85.3949 1.41931H86.9519V238.403H85.3949V1.41931ZM90.2529 1.41931H88.4467V238.403H90.2529V1.41931ZM93.367 1.41931H94.9241V238.403H93.367V1.41931ZM104.64 1.41931H98.2251V238.403H104.64V1.41931ZM106.197 1.41931H107.754V238.403H106.197V1.41931ZM112.612 1.41931H111.055C111.055 86.6302 111.055 171.841 111.118 257.052H112.612V1.41931ZM114.107 1.41931H117.47V238.403H114.107V227.788V1.41931ZM125.443 1.41931H123.886V238.403H125.443V1.41931ZM131.795 1.41931H133.352V238.403H131.795V1.41931ZM139.768 1.41931H136.716V238.403H139.768V1.41931ZM141.262 1.41931H143.069V238.403H141.262V1.41931ZM147.678 1.41931H144.626V238.403H147.678V1.41931ZM151.041 1.41931H152.598V238.403H151.041V1.41931ZM160.57 1.41931H159.013V238.403H160.57V1.41931ZM163.871 1.41931H165.428V256.765C165.179 256.765 164.93 256.837 164.681 256.909C164.431 256.98 164.182 257.052 163.933 257.052C163.871 171.841 163.871 86.6302 163.871 1.41931ZM171.843 1.41931H168.48V255.904C169.601 255.904 170.722 255.904 171.843 256.478V1.41931ZM176.701 1.41931H179.753V238.403H176.701V1.41931ZM189.531 1.41931H184.673V238.403H189.531V1.41931ZM191.089 1.41931H192.646V238.403H191.089V1.41931ZM197.504 1.41931H194.14V233.239C194.203 240.985 194.203 248.445 194.203 256.191C195.324 257.052 196.445 258.487 197.504 260.495V1.41931Z" fill="url(#paint0_linear_1121_13412)" fill-opacity="0.24"/>
</g>
</g>
<defs>
<linearGradient id="paint0_linear_1121_13412" x1="162.956" y1="371.436" x2="321.883" y2="29.8523" gradientUnits="userSpaceOnUse">
<stop stop-color="#E2F3FD"/>
<stop offset="0.227083" stop-color="#93E1ED"/>
<stop offset="0.482292" stop-color="#02B9F3"/>
<stop offset="0.747917" stop-color="#028ABE"/>
<stop offset="1" stop-color="#005C9D"/>
</linearGradient>
</defs>
</svg>
