<svg width="15" height="16" viewBox="0 0 15 16" fill="none" xmlns="http://www.w3.org/2000/svg">
<g id="news">
<g id="Group 15">
<path id="Vector" d="M12 4.06421H13.875C14.0408 4.06421 14.1997 4.13006 14.3169 4.24727C14.4342 4.36448 14.5 4.52345 14.5 4.68921V11.5642C14.5 11.8957 14.3683 12.2137 14.1339 12.4481C13.8995 12.6825 13.5815 12.8142 13.25 12.8142M13.25 12.8142C12.9185 12.8142 12.6005 12.6825 12.3661 12.4481C12.1317 12.2137 12 11.8957 12 11.5642V3.43921C12 3.27345 11.9342 3.11448 11.8169 2.99727C11.6997 2.88006 11.5408 2.81421 11.375 2.81421H5.125C4.95924 2.81421 4.80027 2.88006 4.68306 2.99727C4.56585 3.11448 4.5 3.27345 4.5 3.43921V10.9392C4.5 11.4365 4.69754 11.9134 5.04917 12.265C5.40081 12.6167 5.87772 12.8142 6.375 12.8142H13.25Z" stroke="#E2F3FD" stroke-linecap="round" stroke-linejoin="round"/>
<path id="Vector_2" d="M7 5.31421H9.5" stroke="#E2F3FD" stroke-linecap="round" stroke-linejoin="round"/>
<path id="Vector_3" d="M7 7.81421H9.5" stroke="#E2F3FD" stroke-linecap="round" stroke-linejoin="round"/>
<path id="Vector_4" d="M7 10.3142H9.5" stroke="#E2F3FD" stroke-linecap="round" stroke-linejoin="round"/>
</g>
</g>
</svg>
