<svg width="23" height="23" viewBox="0 0 23 23" fill="none" xmlns="http://www.w3.org/2000/svg">
<g id="send" clip-path="url(#clip0_337_41371)">
<path id="Vector" d="M9.58743 12.9293L19.6708 2.84595" stroke="#111010" stroke-width="2" stroke-linecap="round" stroke-linejoin="round"/>
<path id="Vector_2" d="M19.6708 2.84595L13.7124 19.3459C13.6722 19.4337 13.6077 19.5081 13.5264 19.5602C13.4452 19.6124 13.3507 19.6401 13.2541 19.6401C13.1576 19.6401 13.0631 19.6124 12.9818 19.5602C12.9006 19.5081 12.836 19.4337 12.7958 19.3459L9.58745 12.9293L3.17078 9.72095C3.08302 9.68073 3.00865 9.61616 2.95651 9.53491C2.90437 9.45366 2.87665 9.35915 2.87665 9.26261C2.87665 9.16607 2.90437 9.07156 2.95651 8.99032C3.00865 8.90907 3.08302 8.8445 3.17078 8.80428L19.6708 2.84595Z" stroke="#111010" stroke-width="2" stroke-linecap="round" stroke-linejoin="round"/>
</g>
<defs>
<clipPath id="clip0_337_41371">
<rect width="22" height="22" fill="white" transform="translate(0.420776 0.0959473)"/>
</clipPath>
</defs>
</svg>
