<svg width="15" height="16" viewBox="0 0 15 16" fill="none" xmlns="http://www.w3.org/2000/svg">
<g id="stars" clip-path="url(#clip0_72_6609)">
<g id="Group 14">
<path id="Vector" d="M13.125 12.6999L11.7675 13.4111C11.7272 13.4321 11.6819 13.4415 11.6366 13.4382C11.5913 13.4349 11.5478 13.419 11.511 13.3925C11.4742 13.3659 11.4455 13.3296 11.4281 13.2876C11.4107 13.2457 11.4053 13.1997 11.4125 13.1549L11.6719 11.648L10.5738 10.5811C10.541 10.5494 10.5178 10.5092 10.5068 10.4649C10.4958 10.4207 10.4975 10.3742 10.5116 10.3309C10.5258 10.2876 10.5518 10.2491 10.5868 10.2198C10.6218 10.1906 10.6642 10.1718 10.7094 10.1655L12.2269 9.9455L12.9057 8.57488C12.926 8.53406 12.9572 8.49971 12.996 8.4757C13.0347 8.45169 13.0794 8.43896 13.125 8.43896C13.1706 8.43896 13.2153 8.45169 13.2541 8.4757C13.2928 8.49971 13.3241 8.53406 13.3444 8.57488L14.0232 9.9455L15.5407 10.1655C15.5857 10.172 15.628 10.1909 15.6628 10.2202C15.6976 10.2495 15.7236 10.2879 15.7377 10.3312C15.7518 10.3744 15.7535 10.4207 15.7427 10.4649C15.7318 10.5091 15.7088 10.5493 15.6763 10.5811L14.5782 11.648L14.8369 13.1543C14.8447 13.1992 14.8397 13.2454 14.8225 13.2876C14.8053 13.3298 14.7767 13.3664 14.7398 13.3931C14.7029 13.4199 14.6592 13.4358 14.6137 13.4389C14.5683 13.4421 14.5228 13.4325 14.4825 13.4111L13.125 12.6999Z" stroke="#E2F3FD" stroke-linecap="round" stroke-linejoin="round"/>
<path id="Vector_2" d="M5.87503 12.6999L4.51753 13.4111C4.47724 13.4321 4.43192 13.4415 4.38663 13.4382C4.34133 13.4349 4.29784 13.419 4.26102 13.3925C4.2242 13.3659 4.19549 13.3296 4.17809 13.2876C4.1607 13.2457 4.15531 13.1997 4.16253 13.1549L4.4219 11.648L3.32378 10.5811C3.291 10.5494 3.26779 10.5092 3.2568 10.4649C3.24581 10.4207 3.24749 10.3742 3.26163 10.3309C3.27577 10.2876 3.30181 10.2491 3.33678 10.2198C3.37175 10.1906 3.41424 10.1718 3.4594 10.1655L4.9769 9.9455L5.65565 8.57488C5.67595 8.53406 5.70724 8.49971 5.74599 8.4757C5.78475 8.45169 5.82944 8.43896 5.87503 8.43896C5.92062 8.43896 5.9653 8.45169 6.00406 8.4757C6.04282 8.49971 6.0741 8.53406 6.0944 8.57488L6.77315 9.9455L8.29065 10.1655C8.33568 10.172 8.37799 10.1909 8.41281 10.2202C8.44763 10.2495 8.47356 10.2879 8.48767 10.3312C8.50178 10.3744 8.50351 10.4207 8.49266 10.4649C8.48181 10.5091 8.45882 10.5493 8.42628 10.5811L7.32815 11.648L7.5869 13.1543C7.59467 13.1992 7.58968 13.2454 7.57251 13.2876C7.55534 13.3298 7.52668 13.3664 7.48977 13.3931C7.45286 13.4199 7.4092 13.4358 7.36372 13.4389C7.31825 13.4421 7.2728 13.4325 7.23253 13.4111L5.87503 12.6999Z" stroke="#E2F3FD" stroke-linecap="round" stroke-linejoin="round"/>
<path id="Vector_3" d="M9.50003 6.44988L8.14253 7.16113C8.10224 7.1821 8.05692 7.19145 8.01163 7.18816C7.96633 7.18486 7.92284 7.16904 7.88602 7.14246C7.8492 7.11588 7.82049 7.07958 7.80309 7.03763C7.7857 6.99568 7.78031 6.94972 7.78753 6.90488L8.0469 5.398L6.94878 4.33113C6.916 4.29944 6.89279 4.25918 6.8818 4.21494C6.87081 4.17069 6.87249 4.12425 6.88663 4.08091C6.90077 4.03757 6.92681 3.99908 6.96178 3.96983C6.99675 3.94058 7.03924 3.92176 7.0844 3.9155L8.6019 3.6955L9.28065 2.32488C9.30095 2.28406 9.33224 2.24971 9.37099 2.2257C9.40975 2.20169 9.45444 2.18896 9.50003 2.18896C9.54562 2.18896 9.5903 2.20169 9.62906 2.2257C9.66782 2.24971 9.6991 2.28406 9.7194 2.32488L10.3982 3.6955L11.9157 3.9155C11.9607 3.92198 12.003 3.94093 12.0378 3.9702C12.0726 3.99948 12.0986 4.03791 12.1127 4.08116C12.1268 4.1244 12.1285 4.17073 12.1177 4.21491C12.1068 4.25908 12.0838 4.29934 12.0513 4.33113L10.9532 5.398L11.2119 6.90425C11.2197 6.94917 11.2147 6.99537 11.1975 7.03759C11.1803 7.07982 11.1517 7.11638 11.1148 7.14314C11.0779 7.16989 11.0342 7.18576 10.9887 7.18894C10.9433 7.19212 10.8978 7.18248 10.8575 7.16113L9.50003 6.44988Z" stroke="#E2F3FD" stroke-linecap="round" stroke-linejoin="round"/>
</g>
</g>
<defs>
<clipPath id="clip0_72_6609">
<rect width="15" height="15" fill="white" transform="translate(0 0.689209)"/>
</clipPath>
</defs>
</svg>
